<svg width="16" height="16" viewBox="0 0 16 16" fill="none" xmlns="http://www.w3.org/2000/svg">
<path d="M15.733 15.733C16.0889 15.3771 16.0889 14.8 15.733 14.4441L9.28886 8.00001L15.733 1.55586C16.0889 1.19996 16.0889 0.622923 15.733 0.267023C15.3771 -0.0888813 14.8001 -0.0888813 14.4442 0.267023L8.00002 6.71118L1.55577 0.266925C1.19986 -0.0889751 0.622844 -0.0889751 0.266933 0.266925C-0.0889778 0.62283 -0.0889778 1.19986 0.266933 1.55576L6.71118 8.00002L0.266961 14.4442C-0.08895 14.8001 -0.08895 15.3772 0.266961 15.7331C0.622872 16.089 1.19989 16.089 1.5558 15.7331L8.00002 9.28885L14.4442 15.733C14.8 16.0889 15.3771 16.0889 15.733 15.733Z" fill="#FF0B0B"/>
</svg>
