<svg width="44" height="60" viewBox="0 0 44 60" fill="none" xmlns="http://www.w3.org/2000/svg">
<path fill-rule="evenodd" clip-rule="evenodd" d="M0.217987 1.09202C0 1.51984 0 2.0799 0 3.2V56.8C0 57.9201 0 58.4802 0.217987 58.908C0.409734 59.2843 0.715695 59.5903 1.09202 59.782C1.51984 60 2.07989 60 3.2 60H40.8C41.9201 60 42.4802 60 42.908 59.782C43.2843 59.5903 43.5903 59.2843 43.782 58.908C44 58.4802 44 57.9201 44 56.8V19.0909H27.95C26.8299 19.0909 26.2698 19.0909 25.842 18.8729C25.4657 18.6812 25.1597 18.3752 24.968 17.9989C24.75 17.5711 24.75 17.011 24.75 15.8909V0H3.2C2.0799 0 1.51984 0 1.09202 0.217987C0.715695 0.409734 0.409734 0.715695 0.217987 1.09202ZM11 29.1C10.5029 29.1 10.1 29.5029 10.1 30C10.1 30.4971 10.5029 30.9 11 30.9H33C33.4971 30.9 33.9 30.4971 33.9 30C33.9 29.5029 33.4971 29.1 33 29.1H11ZM10.1 39.5455C10.1 39.0484 10.5029 38.6455 11 38.6455H33C33.4971 38.6455 33.9 39.0484 33.9 39.5455C33.9 40.0425 33.4971 40.4455 33 40.4455H11C10.5029 40.4455 10.1 40.0425 10.1 39.5455ZM11 48.1909C10.5029 48.1909 10.1 48.5939 10.1 49.0909C10.1 49.588 10.5029 49.9909 11 49.9909H22C22.4971 49.9909 22.9 49.588 22.9 49.0909C22.9 48.5939 22.4971 48.1909 22 48.1909H11Z" fill="#FF630B"/>
<path d="M24.75 15.8909V0L44 19.0909H27.95C26.8299 19.0909 26.2698 19.0909 25.842 18.8729C25.4657 18.6812 25.1597 18.3752 24.968 17.9989C24.75 17.5711 24.75 17.011 24.75 15.8909Z" fill="#595959"/>
</svg>
