<svg width="24" height="24" viewBox="0 0 24 24" fill="none" xmlns="http://www.w3.org/2000/svg">
<path fill-rule="evenodd" clip-rule="evenodd" d="M0 9.9C0 5.77529 0 3.71294 1.05041 2.26718C1.38964 1.80026 1.80026 1.38964 2.26718 1.05041C3.71294 0 5.77529 0 9.9 0H14.1C18.2247 0 20.2871 0 21.7328 1.05041C22.1997 1.38964 22.6104 1.80026 22.9496 2.26718C24 3.71294 24 5.77529 24 9.9V14.1C24 18.2247 24 20.2871 22.9496 21.7328C22.6104 22.1997 22.1997 22.6104 21.7328 22.9496C20.2871 24 18.2247 24 14.1 24H9.9C5.77529 24 3.71294 24 2.26718 22.9496C1.80026 22.6104 1.38964 22.1997 1.05041 21.7328C0 20.2871 0 18.2247 0 14.1V9.9ZM12 5.64706C8.49159 5.64706 5.64706 8.49159 5.64706 12C5.64706 15.5084 8.49159 18.3529 12 18.3529C15.5084 18.3529 18.3529 15.5084 18.3529 12C18.3529 8.49159 15.5084 5.64706 12 5.64706ZM12 15.9706C9.81141 15.9706 8.02941 14.1886 8.02941 12C8.02941 9.80982 9.81141 8.02941 12 8.02941C14.1886 8.02941 15.9706 9.80982 15.9706 12C15.9706 14.1886 14.1886 15.9706 12 15.9706ZM19.676 5.17075C19.676 5.63827 19.2969 6.01728 18.8294 6.01728C18.3619 6.01728 17.9829 5.63827 17.9829 5.17075C17.9829 4.70322 18.3619 4.32422 18.8294 4.32422C19.2969 4.32422 19.676 4.70322 19.676 5.17075Z" fill="#FCFCFC"/>
</svg>
