<svg width="114" height="36" viewBox="0 0 114 36" fill="none" xmlns="http://www.w3.org/2000/svg">
<path d="M73.5578 31.0631C73.5597 31.1441 73.5529 31.2252 73.5374 31.3047C73.5288 31.3535 73.5075 31.3989 73.4757 31.4362C73.4397 31.4699 73.398 31.4966 73.3526 31.5149C73.2924 31.5414 73.2298 31.5616 73.1657 31.5753C73.0955 31.5911 73.0211 31.6043 72.9425 31.6148C72.8643 31.6253 72.7855 31.6305 72.7067 31.6306C72.4977 31.6355 72.2894 31.6026 72.0916 31.5334C71.9288 31.4744 71.7839 31.3729 71.6711 31.239C71.5549 31.0938 71.4733 30.9229 71.4328 30.7399C71.3797 30.5066 71.3547 30.2674 71.3583 30.0279V27.2639H70.7124C70.6862 27.2632 70.6607 27.255 70.639 27.2401C70.6172 27.2252 70.6 27.2042 70.5893 27.1797C70.5528 27.0937 70.537 27 70.5432 26.9064C70.5424 26.8501 70.5467 26.7939 70.556 26.7384C70.5625 26.6994 70.5737 26.6615 70.5893 26.6254C70.6001 26.599 70.619 26.5768 70.6431 26.5623C70.666 26.5499 70.6916 26.5436 70.7176 26.544H71.3583V25.4194C71.3582 25.3954 71.3644 25.3718 71.3763 25.351C71.3927 25.3263 71.4159 25.3071 71.4429 25.2959C71.4845 25.2777 71.5286 25.2662 71.5736 25.2618C71.6417 25.2541 71.7103 25.2506 71.7788 25.2513C71.849 25.2505 71.9192 25.254 71.9889 25.2618C72.0332 25.2659 72.0766 25.2775 72.1172 25.2959C72.1436 25.3082 72.1666 25.3271 72.1838 25.351C72.1971 25.3712 72.2043 25.395 72.2043 25.4194V26.544H73.3886C73.4137 26.5434 73.4384 26.5497 73.4604 26.5623C73.4836 26.5778 73.5022 26.5996 73.5141 26.6254C73.5312 26.6609 73.5424 26.6991 73.5474 26.7383C73.5549 26.794 73.5584 26.8502 73.5578 26.9064C73.5638 27 73.548 27.0937 73.5117 27.1797C73.501 27.2042 73.4838 27.2252 73.462 27.2401C73.4402 27.255 73.4148 27.2632 73.3886 27.2639H72.2043V29.9017C72.2043 30.2274 72.2513 30.4735 72.3453 30.64C72.4392 30.8064 72.6075 30.8896 72.8502 30.8896C72.9209 30.8905 72.9914 30.8826 73.0603 30.866C73.122 30.8502 73.1765 30.8336 73.2246 30.8161C73.2723 30.7986 73.3134 30.782 73.3477 30.7662C73.3764 30.7517 73.4079 30.7436 73.4399 30.7425C73.4569 30.7425 73.4737 30.747 73.4885 30.7557C73.506 30.7672 73.5189 30.785 73.5245 30.8056C73.5349 30.8382 73.5425 30.8716 73.5474 30.9054C73.555 30.9576 73.5585 31.0103 73.5578 31.0631Z" fill="#FF630B"/>
<path d="M39.4452 30.1224C39.4491 30.3452 39.4044 30.566 39.3145 30.7688C39.229 30.9559 39.1017 31.1197 38.9429 31.247C38.7717 31.382 38.5768 31.4819 38.3687 31.5412C38.1302 31.61 37.8833 31.6437 37.6354 31.6411C37.3405 31.6417 37.0473 31.5947 36.7666 31.5018C36.6635 31.4679 36.5632 31.4257 36.4667 31.3756C36.4024 31.3438 36.3421 31.3041 36.2871 31.2574C36.2466 31.2174 36.2182 31.1664 36.2052 31.1103C36.1858 31.026 36.1772 30.9394 36.1796 30.8528C36.1789 30.7966 36.1823 30.7403 36.1897 30.6846C36.1947 30.6471 36.2033 30.6101 36.2153 30.5743C36.2231 30.5498 36.2384 30.5286 36.259 30.5138C36.2782 30.5015 36.3005 30.4952 36.3231 30.4955C36.3835 30.5046 36.4408 30.5289 36.4896 30.5665C36.5633 30.6137 36.6539 30.6654 36.7614 30.7214C36.8844 30.7838 37.0122 30.8356 37.1434 30.8765C37.3081 30.9264 37.4793 30.9503 37.651 30.9474C37.7822 30.949 37.9131 30.9331 38.0404 30.9002C38.1485 30.8724 38.251 30.8253 38.343 30.7609C38.427 30.7013 38.4949 30.6208 38.5403 30.5271C38.5887 30.422 38.6125 30.3068 38.6097 30.1907C38.6135 30.0704 38.5784 29.9522 38.5098 29.8545C38.437 29.7579 38.3474 29.676 38.2456 29.6127C38.1285 29.5388 38.0049 29.4764 37.8764 29.4262C37.7397 29.3719 37.5987 29.315 37.4534 29.2554C37.3082 29.1959 37.1661 29.1284 37.028 29.0531C36.892 28.9796 36.7669 28.8867 36.6563 28.7772C36.5451 28.6659 36.4554 28.5339 36.3922 28.3883C36.3217 28.2172 36.2876 28.0327 36.2923 27.8471C36.2918 27.6638 36.3275 27.4824 36.3974 27.3137C36.4684 27.1424 36.5763 26.9898 36.7128 26.8672C36.867 26.731 37.0453 26.6266 37.2381 26.5598C37.4751 26.4783 37.7239 26.4392 37.9738 26.4441C38.0975 26.4442 38.221 26.4547 38.343 26.4756C38.4557 26.4942 38.567 26.5206 38.6762 26.5544C38.7635 26.5812 38.8484 26.6155 38.93 26.657C38.9855 26.6847 39.0387 26.7172 39.0888 26.7542C39.1169 26.774 39.1413 26.7989 39.1606 26.8277C39.1731 26.8497 39.1818 26.8737 39.1863 26.8986C39.1915 26.9249 39.1966 26.9573 39.2018 26.9958C39.2074 27.0429 39.21 27.0903 39.2095 27.1378C39.2099 27.1895 39.2074 27.2413 39.2018 27.2927C39.1984 27.3297 39.1897 27.366 39.1762 27.4004C39.1673 27.4243 39.1522 27.4453 39.1325 27.461C39.1161 27.473 39.0965 27.4794 39.0763 27.4793C39.0277 27.4722 38.9817 27.4523 38.9429 27.4215C38.8705 27.3751 38.7951 27.3338 38.7172 27.2981C38.6116 27.2492 38.5028 27.208 38.3916 27.1746C38.2525 27.134 38.1084 27.1145 37.9637 27.1167C37.8355 27.1147 37.7077 27.1315 37.5841 27.1666C37.4858 27.1941 37.3941 27.2425 37.3151 27.3085C37.2465 27.3677 37.1921 27.4423 37.1563 27.5266C37.1198 27.6128 37.1014 27.7059 37.1022 27.7998C37.0981 27.9231 37.1342 28.0442 37.2048 28.144C37.2783 28.2416 37.3687 28.3244 37.4714 28.3883C37.5902 28.4633 37.7155 28.5266 37.8458 28.5775C37.9858 28.6336 38.1285 28.6914 38.2737 28.751C38.4192 28.8105 38.5627 28.8771 38.7043 28.9507C38.8418 29.0211 38.9687 29.1113 39.0812 29.2186C39.1923 29.3261 39.282 29.4546 39.3454 29.597C39.4156 29.7626 39.4497 29.9419 39.4452 30.1224Z" fill="#FF630B"/>
<path d="M49.9173 31.5412L49.3022 33.2805C49.2871 33.3125 49.2652 33.3407 49.2382 33.363C49.2111 33.3852 49.1796 33.4011 49.1458 33.4093C49.0215 33.4443 48.8926 33.4593 48.7638 33.4539C48.6918 33.455 48.6198 33.4506 48.5485 33.4407C48.5039 33.4357 48.461 33.4204 48.4229 33.3961C48.4092 33.3868 48.3976 33.3744 48.3892 33.3598C48.3807 33.3453 48.3756 33.329 48.3741 33.3121C48.3724 33.2685 48.3812 33.2252 48.3997 33.1859L49.0356 31.5411C49.002 31.5243 48.972 31.5007 48.9474 31.4719C48.9227 31.443 48.9039 31.4094 48.892 31.373L47.2462 26.8539C47.2231 26.7989 47.2093 26.7403 47.2053 26.6805C47.2045 26.6618 47.2077 26.6431 47.2148 26.6259C47.2219 26.6086 47.2326 26.5932 47.2462 26.5807C47.2853 26.5515 47.3315 26.5342 47.3797 26.5308C47.4613 26.5209 47.5434 26.5165 47.6256 26.5176C47.7282 26.5176 47.8085 26.5202 47.8665 26.5254C47.9138 26.5284 47.9605 26.5381 48.0051 26.5544C48.0358 26.5654 48.0619 26.5867 48.0794 26.6148C48.0985 26.6492 48.1147 26.6852 48.128 26.7225L49.4457 30.5164H49.461L50.7324 26.7015C50.7429 26.6513 50.769 26.6061 50.8069 26.5727C50.8473 26.5497 50.8918 26.5354 50.9377 26.5307C51.021 26.5205 51.1048 26.5161 51.1887 26.5175C51.2676 26.5166 51.3464 26.521 51.4248 26.5307C51.4735 26.5346 51.5204 26.5519 51.5604 26.5806C51.5747 26.5927 51.5862 26.6079 51.5937 26.6253C51.6013 26.6426 51.6049 26.6615 51.604 26.6805C51.6019 26.7344 51.5915 26.7876 51.5732 26.8381L49.9173 31.5412Z" fill="#FF630B"/>
<path d="M62.5861 30.7688C62.6761 30.566 62.7207 30.3452 62.7169 30.1224C62.7213 29.9419 62.6872 29.7626 62.617 29.597C62.5537 29.4546 62.4639 29.3261 62.3528 29.2186C62.2403 29.1113 62.1134 29.0211 61.976 28.9507C61.8343 28.8771 61.6908 28.8105 61.5454 28.751C61.4001 28.6914 61.2575 28.6336 61.1175 28.5775C60.9872 28.5266 60.8618 28.4633 60.7431 28.3883C60.6403 28.3244 60.5499 28.2416 60.4765 28.144C60.4058 28.0442 60.3697 27.9231 60.3738 27.7998C60.373 27.7059 60.3914 27.6128 60.4279 27.5266C60.4637 27.4423 60.5181 27.3677 60.5867 27.3085C60.6657 27.2425 60.7574 27.1941 60.8558 27.1666C60.9793 27.1315 61.1071 27.1147 61.2354 27.1167C61.38 27.1145 61.5241 27.134 61.6632 27.1746C61.7744 27.208 61.8832 27.2492 61.9888 27.2981C62.0667 27.3338 62.1421 27.3751 62.2145 27.4215C62.2533 27.4523 62.2993 27.4722 62.3479 27.4793C62.3681 27.4794 62.3877 27.473 62.4041 27.461C62.4238 27.4453 62.4389 27.4243 62.4478 27.4004C62.4614 27.366 62.47 27.3297 62.4734 27.2927C62.479 27.2413 62.4815 27.1895 62.4811 27.1378C62.4816 27.0903 62.4791 27.0429 62.4734 26.9958C62.4683 26.9573 62.4631 26.9249 62.4579 26.8986C62.4534 26.8737 62.4447 26.8497 62.4322 26.8277C62.4129 26.7989 62.3886 26.774 62.3605 26.7542C62.3103 26.7172 62.2572 26.6847 62.2016 26.657C62.12 26.6155 62.0351 26.5812 61.9479 26.5544C61.8386 26.5206 61.7273 26.4942 61.6147 26.4756C61.4926 26.4547 61.3692 26.4442 61.2454 26.4441C60.9956 26.4392 60.7467 26.4783 60.5097 26.5598C60.317 26.6266 60.1386 26.731 59.9844 26.8672C59.8479 26.9898 59.7401 27.1424 59.669 27.3137C59.5992 27.4824 59.5634 27.6638 59.5639 27.8471C59.5592 28.0327 59.5933 28.2172 59.6638 28.3883C59.727 28.5339 59.8167 28.6659 59.9279 28.7772C60.0385 28.8867 60.1637 28.9796 60.2996 29.0531C60.4377 29.1284 60.5798 29.1959 60.7251 29.2554C60.8703 29.315 61.0113 29.3719 61.148 29.4262C61.2765 29.4763 61.4002 29.5388 61.5172 29.6127C61.6191 29.676 61.7086 29.7579 61.7814 29.8545C61.85 29.9522 61.8851 30.0704 61.8813 30.1907C61.8841 30.3068 61.8604 30.422 61.812 30.5271C61.7665 30.6208 61.6987 30.7013 61.6147 30.7609C61.5226 30.8253 61.4201 30.8724 61.312 30.9002C61.1848 30.9331 61.0539 30.949 60.9226 30.9474C60.7509 30.9503 60.5798 30.9264 60.4151 30.8765C60.2838 30.8356 60.156 30.7838 60.033 30.7214C59.9255 30.6654 59.8349 30.6137 59.7612 30.5665C59.7124 30.5289 59.6551 30.5046 59.5947 30.4955C59.5721 30.4952 59.5498 30.5015 59.5306 30.5138C59.51 30.5286 59.4947 30.5498 59.487 30.5743C59.4749 30.6101 59.4663 30.6471 59.4613 30.6846C59.4539 30.7403 59.4505 30.7966 59.4512 30.8528C59.4488 30.9394 59.4574 31.026 59.4769 31.1103C59.4898 31.1664 59.5182 31.2174 59.5587 31.2574C59.6137 31.3041 59.674 31.3438 59.7383 31.3756C59.8348 31.4257 59.9351 31.4679 60.0382 31.5018C60.3189 31.5947 60.6121 31.6417 60.9071 31.6411C61.1549 31.6437 61.4018 31.61 61.6403 31.5412C61.8484 31.4819 62.0433 31.382 62.2145 31.247C62.3733 31.1197 62.5006 30.9559 62.5861 30.7688Z" fill="#FF630B"/>
<path fill-rule="evenodd" clip-rule="evenodd" d="M85.7494 29.1319C85.8163 29.0741 85.8498 28.9769 85.8498 28.8403V28.6827C85.8517 28.3887 85.8129 28.0958 85.7344 27.813C85.6635 27.5533 85.5404 27.3116 85.3731 27.1035C85.2018 26.8966 84.9871 26.7323 84.7449 26.6227C84.4524 26.4961 84.1369 26.4352 83.8195 26.4441C83.5047 26.4394 83.1923 26.5011 82.9018 26.6254C82.6333 26.7425 82.3941 26.9204 82.2021 27.1456C82.0008 27.3867 81.8499 27.6674 81.7587 27.9706C81.6516 28.3253 81.5997 28.695 81.6048 29.0662C81.5984 29.4466 81.6485 29.8258 81.7535 30.1907C81.8394 30.4894 81.9902 30.7642 82.1945 30.9947C82.394 31.2117 82.6408 31.3774 82.9146 31.4782C83.2349 31.5926 83.5726 31.6478 83.9117 31.6411C84.1187 31.6421 84.3253 31.6254 84.5296 31.5912C84.7015 31.5627 84.8718 31.5249 85.0399 31.4782C85.1626 31.445 85.2826 31.4019 85.3987 31.3495C85.4579 31.3253 85.5138 31.2935 85.5652 31.2548C85.583 31.2368 85.5985 31.2165 85.6113 31.1944C85.6237 31.1724 85.6324 31.1484 85.6369 31.1235C85.6421 31.0972 85.6465 31.0674 85.6498 31.0341C85.6535 30.9948 85.6553 30.9554 85.6549 30.9159C85.6553 30.8624 85.6528 30.8089 85.6473 30.7557C85.6441 30.7206 85.6363 30.6861 85.6241 30.6532C85.6157 30.6309 85.6008 30.6119 85.5814 30.5987C85.562 30.5855 85.5391 30.5789 85.5158 30.5796C85.452 30.5859 85.3899 30.6046 85.3329 30.6347C85.2524 30.6716 85.1493 30.7127 85.0238 30.7582C84.8781 30.8095 84.7292 30.8507 84.5781 30.8817C84.3847 30.9206 84.188 30.9391 83.9909 30.9369C83.7503 30.9436 83.5106 30.9026 83.2852 30.8161C83.1028 30.743 82.9415 30.6236 82.8164 30.4693C82.6923 30.3107 82.6043 30.1258 82.5588 29.928C82.5048 29.6957 82.4788 29.4574 82.4815 29.2186H85.5201C85.6043 29.2192 85.6858 29.1884 85.7494 29.1319ZM84.702 27.5109C84.9102 27.7702 85.009 28.1275 84.9987 28.5828H82.4815C82.4877 28.3941 82.5207 28.2074 82.5795 28.0285C82.6337 27.8593 82.7176 27.7017 82.827 27.5633C82.9357 27.4287 83.0711 27.3194 83.2243 27.2428C83.3966 27.159 83.5855 27.1177 83.7761 27.122C84.1855 27.122 84.4941 27.2516 84.702 27.5109Z" fill="#FF630B"/>
<path d="M101.331 31.4099C101.332 31.4352 101.324 31.4601 101.31 31.4808C101.293 31.5032 101.27 31.5204 101.244 31.5307C101.203 31.5473 101.159 31.5579 101.115 31.5622C101.047 31.5699 100.979 31.5734 100.91 31.5727C100.84 31.5735 100.77 31.57 100.7 31.5622C100.655 31.5577 100.611 31.5471 100.569 31.5307C100.542 31.5208 100.518 31.5036 100.5 31.4808C100.486 31.4601 100.479 31.4352 100.48 31.4099V28.5354C100.481 28.352 100.464 28.1688 100.429 27.989C100.4 27.8381 100.344 27.6938 100.265 27.5633C100.193 27.4483 100.094 27.3541 99.9772 27.2901C99.8502 27.2244 99.7094 27.192 99.5673 27.1955C99.3519 27.2033 99.1452 27.2846 98.98 27.4267C98.7394 27.6266 98.5219 27.854 98.3317 28.1045V31.4099C98.3325 31.4352 98.3253 31.4601 98.3112 31.4808C98.2928 31.5035 98.2689 31.5207 98.2419 31.5307C98.1999 31.5471 98.1559 31.5577 98.1112 31.5622C97.9756 31.5762 97.839 31.5762 97.7035 31.5622C97.6579 31.5578 97.6131 31.5473 97.5703 31.5307C97.5437 31.5214 97.5205 31.504 97.5037 31.4808C97.4912 31.4595 97.4849 31.4348 97.4857 31.4099V28.5354C97.4874 28.3517 97.4684 28.1683 97.4292 27.989C97.3972 27.8382 97.34 27.6942 97.26 27.5633C97.1896 27.4488 97.0917 27.3547 96.9757 27.2901C96.8496 27.2243 96.7095 27.1918 96.568 27.1955C96.3519 27.2035 96.1445 27.2848 95.9783 27.4267C95.7373 27.6254 95.5205 27.853 95.3324 28.1045V31.4099C95.3332 31.4352 95.326 31.4601 95.3119 31.4808C95.2943 31.5032 95.2714 31.5204 95.2453 31.5307C95.2042 31.5473 95.161 31.5579 95.117 31.5622C95.0473 31.57 94.9771 31.5735 94.9069 31.5727C94.8384 31.5734 94.7698 31.5699 94.7017 31.5622C94.657 31.5577 94.613 31.5471 94.571 31.5307C94.5444 31.5213 94.5212 31.5039 94.5044 31.4808C94.4918 31.4595 94.4856 31.4348 94.4864 31.4099V26.6806C94.4856 26.656 94.491 26.6316 94.502 26.6097C94.5168 26.5862 94.5382 26.5679 94.5634 26.5571C94.6005 26.5395 94.6405 26.5289 94.6813 26.5255C94.7443 26.5196 94.8076 26.517 94.8709 26.5176C94.9462 26.5176 95.0084 26.5203 95.0581 26.5255C95.0982 26.528 95.1375 26.5388 95.1735 26.5571C95.1971 26.5694 95.2173 26.5875 95.2325 26.6097C95.2451 26.631 95.2513 26.6557 95.2505 26.6806V27.3059C95.4654 27.0463 95.7209 26.8252 96.0067 26.6516C96.2322 26.5185 96.4873 26.447 96.7476 26.4441C96.9216 26.4418 97.095 26.4648 97.2628 26.5124C97.406 26.5538 97.5418 26.6185 97.665 26.7042C97.7794 26.7847 97.88 26.8841 97.9624 26.9985C98.0464 27.116 98.1154 27.244 98.1677 27.3794C98.3045 27.2246 98.4509 27.0789 98.6059 26.9432C98.7301 26.8344 98.864 26.7377 99.0057 26.6543C99.1235 26.5852 99.2493 26.5313 99.3801 26.494C99.4996 26.461 99.6228 26.4442 99.7466 26.4441C100.005 26.4354 100.262 26.4904 100.495 26.6044C100.689 26.7048 100.857 26.8517 100.985 27.0326C101.114 27.2214 101.204 27.435 101.251 27.6605C101.305 27.9098 101.332 28.1645 101.331 28.4199V31.4099Z" fill="#FF630B"/>
<path d="M112.99 30.7688C113.079 30.566 113.124 30.3452 113.12 30.1224C113.125 29.9419 113.091 29.7626 113.02 29.597C112.957 29.4546 112.867 29.3261 112.756 29.2186C112.644 29.1113 112.517 29.0211 112.379 28.9507C112.238 28.8771 112.094 28.8105 111.949 28.751C111.803 28.6914 111.661 28.6336 111.521 28.5775C111.391 28.5266 111.265 28.4633 111.146 28.3883C111.044 28.3244 110.953 28.2416 110.88 28.144C110.809 28.0442 110.773 27.9231 110.777 27.7998C110.776 27.7059 110.795 27.6128 110.831 27.5266C110.867 27.4423 110.921 27.3677 110.99 27.3085C111.069 27.2425 111.161 27.1941 111.259 27.1666C111.383 27.1315 111.511 27.1147 111.639 27.1167C111.783 27.1145 111.928 27.134 112.067 27.1746C112.178 27.208 112.287 27.2492 112.392 27.2981C112.47 27.3338 112.546 27.3751 112.618 27.4215C112.657 27.4523 112.703 27.4722 112.751 27.4793C112.771 27.4794 112.791 27.473 112.808 27.461C112.827 27.4453 112.842 27.4243 112.851 27.4004C112.865 27.366 112.873 27.3297 112.877 27.2927C112.882 27.2413 112.885 27.1895 112.884 27.1378C112.885 27.0903 112.882 27.0429 112.877 26.9958C112.872 26.9573 112.866 26.9249 112.861 26.8986C112.857 26.8737 112.848 26.8497 112.836 26.8277C112.816 26.7989 112.792 26.774 112.764 26.7542C112.714 26.7172 112.661 26.6847 112.605 26.657C112.523 26.6155 112.439 26.5812 112.351 26.5544C112.242 26.5206 112.131 26.4942 112.018 26.4756C111.896 26.4547 111.773 26.4442 111.649 26.4441C111.399 26.4392 111.15 26.4783 110.913 26.5598C110.72 26.6266 110.542 26.731 110.388 26.8672C110.251 26.9898 110.143 27.1424 110.072 27.3137C110.003 27.4824 109.967 27.6638 109.967 27.8471C109.963 28.0327 109.997 28.2172 110.067 28.3883C110.13 28.5339 110.22 28.6659 110.331 28.7772C110.442 28.8867 110.567 28.9796 110.703 29.0531C110.841 29.1284 110.983 29.1959 111.128 29.2554C111.274 29.315 111.415 29.3719 111.551 29.4262C111.68 29.4763 111.804 29.5388 111.921 29.6127C112.022 29.676 112.112 29.7579 112.185 29.8545C112.253 29.9522 112.289 30.0704 112.285 30.1907C112.288 30.3068 112.264 30.422 112.215 30.5271C112.17 30.6208 112.102 30.7013 112.018 30.7609C111.926 30.8253 111.824 30.8724 111.715 30.9002C111.588 30.9331 111.457 30.949 111.326 30.9474C111.154 30.9503 110.983 30.9264 110.818 30.8765C110.687 30.8356 110.559 30.7838 110.436 30.7214C110.329 30.6654 110.238 30.6137 110.165 30.5665C110.116 30.5289 110.059 30.5046 109.998 30.4955C109.976 30.4952 109.953 30.5015 109.934 30.5138C109.913 30.5286 109.898 30.5498 109.89 30.5743C109.878 30.6101 109.87 30.6471 109.865 30.6846C109.857 30.7403 109.854 30.7966 109.855 30.8528C109.852 30.9394 109.861 31.026 109.88 31.1103C109.893 31.1664 109.922 31.2174 109.962 31.2574C110.017 31.3041 110.077 31.3438 110.142 31.3756C110.238 31.4257 110.339 31.4679 110.442 31.5018C110.722 31.5947 111.016 31.6417 111.31 31.6411C111.558 31.6437 111.805 31.61 112.044 31.5412C112.252 31.4819 112.447 31.382 112.618 31.247C112.777 31.1197 112.904 30.9559 112.99 30.7688Z" fill="#FF630B"/>
<path d="M12.8099 1.02934C12.8659 0.99462 12.9132 0.946849 12.9478 0.8899C13.1168 0.578847 12.8487 0.0539927 12.4966 0.00670037C12.1663 -0.0376793 11.9854 0.140574 12.0574 0.476862C12.0959 0.6465 12.1711 0.805088 12.2776 0.940871C12.32 0.991955 12.3736 1.03206 12.4341 1.05791C12.4945 1.08377 12.56 1.09466 12.6253 1.0897C12.6906 1.08473 12.7538 1.06405 12.8099 1.02934Z" fill="#FF630B"/>
<path d="M9.14842 2.00634C9.12733 2.07479 9.0908 2.13718 9.04178 2.18844C8.99276 2.2397 8.93263 2.27839 8.86629 2.30136C8.79994 2.32434 8.72924 2.33095 8.65993 2.32067C8.59062 2.31038 8.52466 2.28349 8.46739 2.24217C8.32187 2.13057 8.20271 1.98683 8.11877 1.8216C7.95679 1.49291 8.09774 1.25889 8.45151 1.21464C8.82848 1.16751 9.24263 1.63801 9.14842 2.00634Z" fill="#FF630B"/>
<path d="M14.2665 2.99601C14.2669 2.62068 13.7599 2.12057 13.3752 2.11672C13.3084 2.11354 13.2416 2.12423 13.1789 2.14815C13.1162 2.17207 13.0589 2.20874 13.0104 2.25594C12.9618 2.30314 12.9231 2.3599 12.8965 2.42282C12.87 2.48574 12.8561 2.55352 12.8557 2.62209C12.8427 2.99931 13.3363 3.50877 13.7243 3.51855C13.7938 3.52261 13.8634 3.51212 13.9288 3.48772C13.9942 3.46332 14.0541 3.42553 14.1049 3.37664C14.1556 3.32776 14.1961 3.2688 14.2239 3.20336C14.2516 3.13792 14.2661 3.06737 14.2665 2.99601Z" fill="#FF630B"/>
<path d="M10.9752 4.06767C10.9768 3.59061 10.5207 3.16658 10.0159 3.17568C9.64082 3.18245 9.44125 3.38077 9.45098 3.73699C9.46296 4.17469 9.94849 4.64197 10.3904 4.64114C10.4657 4.64317 10.5405 4.6299 10.6107 4.60212C10.6809 4.57434 10.745 4.53258 10.7994 4.47927C10.8537 4.42595 10.8973 4.36213 10.9274 4.29149C10.9576 4.22084 10.9738 4.14478 10.9752 4.06767Z" fill="#FF630B"/>
<path d="M14.0007 5.83265C14.0348 5.85764 14.0665 5.88076 14.0908 5.90296C14.213 5.87778 14.3265 5.85615 14.4336 5.83572C14.666 5.79142 14.8687 5.75278 15.0665 5.69584C15.205 5.65595 15.3364 5.5904 15.4679 5.52484C15.5267 5.49554 15.5854 5.46625 15.6448 5.43924C15.6269 5.40834 15.609 5.37742 15.591 5.34651L15.5664 5.30394L15.5654 5.30233C15.4778 5.15112 15.3901 4.99987 15.3016 4.84919C15.2883 4.83074 15.2723 4.81452 15.2542 4.8011C14.7838 4.38822 14.2346 4.37102 13.8715 4.76426C13.6418 5.01305 13.6517 5.31728 13.7716 5.59658C13.8146 5.69657 13.9155 5.77039 14.0007 5.83265Z" fill="#FF630B"/>
<path d="M8.12862 6.31206C8.13023 6.79791 7.60867 7.12621 7.13453 6.90413C6.91385 6.79787 6.71901 6.64258 6.56417 6.44954C6.2606 6.06756 6.42683 5.57176 6.8808 5.40957C7.40156 5.22354 8.12676 5.74804 8.12862 6.31206Z" fill="#FF630B"/>
<path d="M11.9289 5.4049C12.356 5.45858 12.7244 5.62831 12.9926 5.98504C13.1201 6.15469 13.0995 6.28934 12.9011 6.40125C12.7289 6.49841 12.5593 6.60063 12.3898 6.70284L12.389 6.70328C12.1843 6.82661 11.9798 6.94993 11.7705 7.06438C11.7203 7.09077 11.6652 7.10612 11.6088 7.10945C11.5524 7.11279 11.496 7.10403 11.4431 7.08375C11.1677 6.93367 10.9944 6.35291 11.0937 6.00671C11.1454 5.82401 11.2563 5.66482 11.4081 5.55541C11.56 5.44601 11.7436 5.39291 11.9289 5.4049Z" fill="#FF630B"/>
<path d="M10.3986 7.41092C10.2161 7.28853 10.0229 7.15896 9.78193 7.1604C9.51142 7.16202 9.27261 7.33316 9.09302 7.49115C8.58547 7.93768 8.78985 9.01468 9.41902 9.24924C9.51675 9.28567 9.70705 9.21536 9.78412 9.12866C9.99401 8.8925 10.1896 8.64302 10.3851 8.3935L10.3854 8.39324L10.3855 8.3931C10.4692 8.28622 10.553 8.17931 10.638 8.07346C10.8377 7.82451 10.8326 7.67352 10.5674 7.51919C10.5115 7.48662 10.4556 7.44914 10.3987 7.41097L10.3986 7.41092Z" fill="#FF630B"/>
<path d="M7.18901 10.9868C7.19779 10.4824 7.42517 10.1793 7.83473 9.99466C8.23385 9.81468 8.60343 9.87823 8.93992 10.1299C8.97989 10.1707 9.0096 10.2209 9.0265 10.2761C9.0434 10.3314 9.04699 10.39 9.03696 10.4469C8.91654 10.8217 8.78188 11.1916 8.6472 11.5616L8.6452 11.5672L8.64516 11.5673C8.59359 11.7089 8.54202 11.8506 8.49128 11.9925C8.39005 12.2756 8.21987 12.3203 7.96849 12.1763C7.49514 11.9051 7.20474 11.519 7.18901 10.9868Z" fill="#FF630B"/>
<path d="M8.13254 14.8634C8.13281 14.771 8.13309 14.6786 8.13309 14.5862L8.11273 14.5854C8.11865 14.4969 8.12685 14.4081 8.13506 14.3194C8.15531 14.1003 8.17556 13.8812 8.16138 13.6645C8.15283 13.5341 8.02622 13.3393 7.9128 13.3016C7.49757 13.1636 6.95484 13.3938 6.70421 13.7597C6.44685 14.1354 6.37935 14.5209 6.59996 14.9461C6.86387 15.4548 7.25767 15.7725 7.81707 15.8463C8.04002 15.8757 8.13704 15.7348 8.1341 15.5103C8.13127 15.2947 8.13191 15.079 8.13254 14.8634Z" fill="#FF630B"/>
<path d="M8.37061 19.6386C7.34544 19.6256 6.6999 18.7368 6.98146 17.8064C7.09729 17.4236 7.58344 17.0146 7.9369 16.9942C8.18938 16.9795 8.31689 17.0848 8.37961 17.347C8.5275 17.9653 8.69772 18.5784 8.87639 19.1882C8.94852 19.4344 8.88162 19.5651 8.64451 19.6097C8.55374 19.624 8.46233 19.6336 8.37061 19.6386Z" fill="#FF630B"/>
<path d="M9.81035 23.3569C9.17312 23.33 8.68566 22.9484 8.47411 22.2893C8.31578 21.796 8.54338 21.1586 9.00348 20.8068C9.25205 20.6167 9.40611 20.65 9.5712 20.9244C9.90939 21.4864 10.2486 22.0477 10.5889 22.6083C10.7453 22.8661 10.6734 23.0973 10.3586 23.2309C10.2411 23.2808 10.1123 23.3027 9.98356 23.3246C9.92548 23.3345 9.8674 23.3444 9.81035 23.3569Z" fill="#FF630B"/>
<path d="M10.9924 25.4732C11.2098 26.0544 11.6905 26.4365 12.0859 26.4391C12.6342 26.4525 12.9465 26.234 13.2156 25.9234C13.3671 25.7486 13.3313 25.5918 13.1798 25.4455C13.0753 25.3446 12.971 25.2433 12.8668 25.142L12.8664 25.1416L12.8655 25.1407C12.4857 24.7717 12.106 24.4027 11.7117 24.0509C11.6334 23.981 11.4009 23.9836 11.3143 24.052C10.9684 24.325 10.8273 25.032 10.9924 25.4732Z" fill="#FF630B"/>
<path d="M14.0295 27.0402C14.0435 26.9343 14.066 26.8297 14.0967 26.7276C14.2283 26.3448 14.3748 26.2984 14.7242 26.4825C14.9589 26.6062 15.1961 26.7248 15.4333 26.8435L15.4368 26.8454C15.6776 26.9659 15.9184 27.0864 16.1566 27.2121C16.4906 27.3882 16.5098 27.4782 16.3284 27.7978C15.9611 28.4452 15.5141 28.6557 14.8934 28.4737C14.425 28.3364 14.024 27.7133 14.0295 27.0402Z" fill="#FF630B"/>
<path d="M6.55129 24.9788C7.08449 24.9824 7.57781 24.4774 7.58049 23.9252C7.58327 23.3514 7.20332 22.9553 6.64015 22.9448C6.05105 22.9338 5.59533 23.3684 5.58908 23.947C5.58338 24.476 6.04914 24.9755 6.55129 24.9788Z" fill="#FF630B"/>
<path d="M19.6018 28.3054C19.5978 28.5649 19.515 28.8166 19.3651 29.0257C19.2151 29.2347 19.0053 29.3907 18.7648 29.4719C18.4119 29.599 18.1157 29.4477 17.8681 29.2323C17.6945 29.0857 17.5581 28.8981 17.4707 28.6857C17.3832 28.4733 17.3473 28.2424 17.3659 28.0126C17.3804 27.7502 17.5008 27.6404 17.7556 27.6767C18.2741 27.7507 18.7926 27.8244 19.312 27.8912C19.5621 27.9233 19.6178 28.0846 19.6018 28.3054Z" fill="#FF630B"/>
<path d="M4.58962 18.1166C5.18228 18.123 5.61019 18.5428 5.60442 19.1121C5.59934 19.6124 5.11607 20.0723 4.60178 20.0662C4.0585 20.0597 3.58059 19.5716 3.59288 19.0357C3.6057 18.4771 4.00348 18.1104 4.58962 18.1166Z" fill="#FF630B"/>
<path d="M9.81317 29.0363C9.29741 29.031 8.92202 28.6096 8.92652 28.041C8.93142 27.4215 9.35166 26.9785 9.92572 26.9875C10.4264 26.9953 10.8466 27.4479 10.8411 27.9736C10.8355 28.5207 10.3317 29.0416 9.81317 29.0363Z" fill="#FF630B"/>
<path d="M4.19716 15.0021C3.64355 15 3.10602 14.503 3.11588 14.0024C3.12468 13.5554 3.5583 13.1794 4.06086 13.183C4.64708 13.1872 5.10422 13.6179 5.09958 14.1618C5.09529 14.6636 4.72966 15.0041 4.19716 15.0021Z" fill="#FF630B"/>
<path d="M14.8242 30.6954C14.8155 31.26 14.4047 31.7316 13.9185 31.7352C13.4328 31.7387 13.0725 31.3076 13.0857 30.7387C13.0985 30.1905 13.531 29.6775 13.9831 29.6744C14.4176 29.6714 14.8323 30.1748 14.8242 30.6954Z" fill="#FF630B"/>
<path d="M21.9836 29.226C22.3836 28.9777 22.5858 28.5998 22.6131 28.2489C22.6269 27.6012 22.4961 27.4847 22.0019 27.5927C21.8629 27.6231 21.7249 27.6587 21.587 27.6942C21.4221 27.7366 21.2573 27.779 21.0908 27.8127C20.4774 27.9367 20.4486 27.982 20.6763 28.5695C20.6916 28.6124 20.7091 28.6545 20.7286 28.6956C20.9921 29.21 21.5917 29.4693 21.9836 29.226Z" fill="#FF630B"/>
<path d="M4.18572 9.49568C4.17303 10.0243 4.63655 10.457 5.22896 10.4697C5.69495 10.4797 6.04773 10.1792 6.0567 9.76472C6.06669 9.3034 5.50287 8.77005 4.99823 8.76351C4.56995 8.75795 4.19533 9.09553 4.18572 9.49568Z" fill="#FF630B"/>
<path d="M18.1964 32.8302C18.6635 32.8455 19.015 32.4365 19.0246 31.8662C19.0332 31.3532 18.6661 30.8764 18.2524 30.8633C17.8565 30.8509 17.4339 31.3687 17.4288 31.8725C17.4236 32.384 17.7699 32.8161 18.1964 32.8302Z" fill="#FF630B"/>
<path d="M21.5155 31.3202C21.5086 31.3673 21.5019 31.4137 21.4929 31.4577C21.5072 31.5998 21.5319 31.7406 21.5667 31.8789C21.7133 32.3208 22.1679 32.5518 22.4847 32.3563C22.975 32.0536 23.0862 31.3162 22.7103 30.8601C22.335 30.4046 21.8277 30.4661 21.5896 31.0075C21.5468 31.1048 21.5308 31.2146 21.5155 31.3202Z" fill="#FF630B"/>
<path d="M4.50785 25.7165C4.50994 25.2549 4.2105 24.9634 3.73737 24.9665C3.27875 24.9694 2.85947 25.3739 2.85655 25.8161C2.85406 26.196 3.23058 26.5572 3.63217 26.5602C4.11168 26.5637 4.50574 26.184 4.50785 25.7165Z" fill="#FF630B"/>
<path d="M8.52076 30.6224C8.51724 30.1988 8.20926 29.8771 7.80927 29.8793C7.35085 29.8818 6.98559 30.278 6.98435 30.774C6.98333 31.1828 7.3048 31.5505 7.66928 31.5575C8.08722 31.5656 8.52456 31.0853 8.52076 30.6224Z" fill="#FF630B"/>
<path d="M1.30886 19.004C1.74218 19.0088 2.13949 19.3882 2.12859 19.7868C2.11711 20.2067 1.73792 20.5374 1.27473 20.5315C0.803529 20.5254 0.472835 20.2239 0.468511 19.7964C0.46412 19.3623 0.849376 18.999 1.30886 19.004Z" fill="#FF630B"/>
<path d="M1.03076 12.9465C1.44889 13.0632 1.73995 13.5331 1.63126 13.916C1.5168 14.3193 1.06844 14.5412 0.621725 14.4157C0.167252 14.288 -0.0785227 13.9108 0.0225285 13.496C0.12516 13.0747 0.587386 12.8228 1.03076 12.9465Z" fill="#FF630B"/>
<path d="M13.4728 33.8261C13.4774 34.3271 13.1301 34.7488 12.7176 34.7432C12.3949 34.7388 12.0802 34.3743 12.0726 33.9963C12.0637 33.5577 12.4745 33.0691 12.8497 33.0719C13.1875 33.0744 13.4691 33.4153 13.4728 33.8261Z" fill="#FF630B"/>
<path d="M17.338 4.58C18.0387 4.68069 18.2797 5.00887 18.3509 5.46051C18.3826 5.66156 18.2806 5.74561 18.1043 5.72686C17.6498 5.67853 17.1949 5.62838 16.7436 5.55652C16.4897 5.51609 16.3722 5.18428 16.5651 4.90893C16.701 4.71504 17.2125 4.56198 17.338 4.58Z" fill="#FF630B"/>
<path d="M20.9369 6.22717C20.8887 5.72121 20.292 5.1784 19.8073 5.17907C19.4662 5.17955 19.2507 5.34896 19.2101 5.65495C19.1661 5.98602 19.3842 6.05829 19.6241 6.1378C19.632 6.14041 19.6399 6.14303 19.6478 6.14567C19.8317 6.20686 20.0104 6.2842 20.1892 6.36157C20.308 6.413 20.4268 6.46444 20.5473 6.51118C20.6437 6.54859 20.8051 6.60429 20.8435 6.56223C20.9153 6.46687 20.9487 6.34699 20.9369 6.22717Z" fill="#FF630B"/>
<path d="M1.43429 8.24605C1.42663 8.63238 1.8566 8.99255 2.32001 8.98797C2.67444 8.98445 2.94829 8.74012 2.95014 8.42578C2.95223 8.06886 2.49358 7.67426 2.08408 7.68064C1.75598 7.68576 1.43994 7.96076 1.43429 8.24605Z" fill="#FF630B"/>
<path d="M23.3015 7.82028C23.2964 7.82843 23.2903 7.8422 23.2828 7.85911C23.258 7.91499 23.218 8.0051 23.1509 8.03929C23.085 8.07285 22.9471 8.00482 22.864 7.94742C22.7136 7.84351 22.5667 7.73417 22.4198 7.62483C22.2785 7.51966 22.1373 7.41449 21.9928 7.31415C21.9775 7.30354 21.962 7.29307 21.9465 7.28261C21.7884 7.17583 21.6327 7.07063 21.7452 6.83592C21.7936 6.72445 21.8779 6.63343 21.984 6.57817C22.0902 6.52291 22.2116 6.50675 22.328 6.53243C22.84 6.61394 23.3005 7.18719 23.3015 7.82028Z" fill="#FF630B"/>
<path d="M17.6116 2.94909C17.6237 3.39516 17.2385 3.6613 16.9225 3.44432C16.697 3.28483 16.512 3.07236 16.383 2.82466C16.3214 2.70548 16.3973 2.43652 16.502 2.32504C16.5935 2.22758 16.8365 2.18994 16.9702 2.2414C17.3036 2.36966 17.5521 2.61611 17.6116 2.94909Z" fill="#FF630B"/>
<path d="M5.62262 4.40244C5.62442 4.73797 5.25751 5.00724 4.93107 4.87463C4.73601 4.79466 4.56101 4.67073 4.41904 4.51201C4.14222 4.19469 4.23127 3.89017 4.61334 3.73227C5.02048 3.56399 5.62026 3.96225 5.62262 4.40244Z" fill="#FF630B"/>
<path d="M17.047 1.06324C17.0177 1.11144 16.9777 1.15187 16.9303 1.18125C16.8829 1.21063 16.8294 1.22814 16.7741 1.23234C16.7188 1.23654 16.6634 1.22732 16.6122 1.20544C16.5611 1.18355 16.5157 1.14961 16.4798 1.10638C16.3897 0.991457 16.326 0.857233 16.2935 0.713657C16.2326 0.429037 16.3856 0.278172 16.6652 0.315728C16.9632 0.355758 17.1901 0.799974 17.047 1.06324Z" fill="#FF630B"/>
<path d="M20.6558 2.34538C20.6185 2.38739 20.5721 2.41979 20.5203 2.43996C20.4685 2.46012 20.4128 2.46748 20.3577 2.46143C20.3026 2.45539 20.2496 2.43611 20.2031 2.40516C20.1567 2.37421 20.118 2.33246 20.0902 2.28331C20.0218 2.15366 19.9827 2.00989 19.9758 1.86265C19.9658 1.57145 20.1428 1.45123 20.4113 1.53969C20.6974 1.63396 20.8427 2.11275 20.6558 2.34538Z" fill="#FF630B"/>
<path d="M23.2925 34.4606C23.2873 34.8731 23.062 35.1666 22.755 35.1609C22.4655 35.1555 22.2044 34.8108 22.2124 34.4446C22.2202 34.0911 22.5088 33.7201 22.7697 33.7286C23.0588 33.7379 23.2975 34.0721 23.2925 34.4606Z" fill="#FF630B"/>
<path d="M20.0817 3.2074C20.4496 3.21108 20.8482 3.67568 20.805 4.05051C20.7663 4.38577 20.4094 4.55561 20.1165 4.329C19.9196 4.16539 19.766 3.95374 19.6697 3.71345C19.5571 3.44226 19.7775 3.20436 20.0817 3.2074Z" fill="#FF630B"/>
<path d="M23.0451 4.94539C23.4171 4.94697 23.8192 5.45857 23.7403 5.82985C23.6871 6.0802 23.4244 6.1991 23.1555 6.09451C22.9157 6.00121 22.6554 5.60614 22.655 5.34295C22.6546 5.0731 22.7885 4.94725 23.0451 4.94539Z" fill="#FF630B"/>
<path fill-rule="evenodd" clip-rule="evenodd" d="M26.4683 21.4708C26.2403 20.8261 26.0802 20.1228 26.0617 19.4402C26.027 18.1567 26.033 16.8722 26.039 15.5875C26.042 14.9482 26.045 14.3087 26.0429 13.6694C26.0412 13.3721 26.0129 13.0755 25.9585 12.7834C25.8592 12.2469 25.5577 11.9411 25.1009 11.867C24.6025 11.7861 24.5766 11.7534 24.5774 11.2272C24.5774 11.211 24.5774 11.1949 24.5775 11.1788C24.5786 10.8396 24.5797 10.5325 24.3049 10.2258C22.5918 8.31318 20.5732 6.97206 18.0301 6.57777C15.616 6.2035 13.4901 6.84078 11.7174 8.57776C10.2458 10.0197 9.5517 11.8569 9.33012 13.889C9.06983 16.2759 9.62825 18.5121 10.7186 20.6016C11.867 22.8023 13.4988 24.5356 15.6936 25.6776C16.9557 26.3342 18.281 26.7251 19.7773 26.7514C21.1443 26.7664 22.4875 26.3846 23.6518 25.6502C24.749 24.9697 25.5854 24.0365 26.2243 22.9108C26.4742 22.4702 26.6723 22.0475 26.4683 21.4708ZM19.127 24.0634C17.6608 24.0634 16.1187 23.656 15.1046 23.0088L15.222 20.1152H16.725L17.113 22.5332C17.7254 22.823 18.3076 22.9659 19.097 22.9659C20.7174 22.9659 21.705 22.1136 21.705 20.7935C21.705 19.6161 21.0719 19.0865 19.6365 18.4787L18.8505 18.1339C16.6986 17.1928 15.3516 16.0158 15.3516 13.8838C15.3516 11.5279 17.2479 10.0958 19.9748 10.0958C21.3275 10.0958 22.5217 10.4945 23.4198 11.1357L23.2809 13.8436H21.792L21.4007 11.5286C20.9471 11.3017 20.4481 11.1869 19.9434 11.1933C18.6268 11.1933 17.6023 11.9453 17.6023 13.2423C17.6023 14.4016 18.3108 15.0474 19.6015 15.5938L20.4428 15.9605C22.9804 17.0487 23.9917 18.1815 23.9917 20.1385C23.9918 22.503 22.1424 24.0634 19.127 24.0634Z" fill="#FF630B"/>
<path d="M23.7069 4.51695C23.7551 4.51892 23.8031 4.5092 23.847 4.48858C24.0743 4.36753 24.1173 3.9329 23.9194 3.7572C23.7337 3.59233 23.5518 3.62674 23.4628 3.86366C23.4192 3.98407 23.4027 4.11299 23.4143 4.24085C23.4202 4.28997 23.4373 4.33698 23.4643 4.37805C23.4912 4.41912 23.5272 4.4531 23.5694 4.47724C23.6115 4.50137 23.6586 4.51498 23.7069 4.51695Z" fill="#FF630B"/>
<path d="M24.2488 8.41099C24.9086 8.42116 25.5296 9.2764 25.3564 9.80302C25.3376 9.85927 25.3079 9.91106 25.2692 9.95531C25.2304 9.99956 25.1834 10.0354 25.1308 10.0606C25.065 10.0833 24.9365 9.98588 24.8663 9.91191C24.602 9.6332 24.3393 9.35123 24.0994 9.05083C24.0132 8.94287 23.9211 8.74919 23.9611 8.64873C23.999 8.55358 24.1124 8.49002 24.1892 8.44697L24.1893 8.44694C24.2143 8.43291 24.2354 8.42105 24.2488 8.41099Z" fill="#FF630B"/>
<path d="M26.77 25.9309C26.9591 25.7373 27.1525 25.4688 27.1716 25.1895C27.1877 24.9543 27.0858 24.7703 26.991 24.5993C26.9592 24.5418 26.9281 24.4857 26.9026 24.4297C26.7498 24.0935 26.5892 24.0837 26.3699 24.3685C26.2809 24.4841 26.1906 24.5985 26.1003 24.713L26.1001 24.7132L26.0984 24.7155C25.9515 24.9017 25.8046 25.0878 25.6636 25.2786C25.602 25.362 25.5206 25.5333 25.5517 25.5685C25.563 25.5814 25.5744 25.5944 25.5858 25.6076C25.5932 25.6162 25.6007 25.6249 25.6082 25.6336L25.633 25.6625L25.6332 25.6628L25.6332 25.6628C25.789 25.8445 25.9531 26.036 26.1538 26.1116C26.3216 26.1749 26.6324 26.0719 26.77 25.9309Z" fill="#FF630B"/>
<path d="M25.2175 27.0775C25.1923 27.3451 25.0061 27.6163 24.8246 27.8391C24.4532 28.295 23.868 28.1919 23.5143 27.6454C23.2385 27.2194 23.2464 27.18 23.6547 26.8997L23.7008 26.8681L23.7012 26.8677L23.7021 26.8671C23.999 26.6633 24.296 26.4594 24.5908 26.2523C24.7715 26.1253 24.9279 26.1809 25.0069 26.357C25.0238 26.3947 25.0428 26.4329 25.0623 26.4721L25.0623 26.4721L25.0627 26.4729C25.1471 26.6428 25.2407 26.8313 25.2175 27.0775Z" fill="#FF630B"/>
<path d="M18.6869 34.984C18.7571 35.4797 18.4681 35.9454 18.0586 35.9966C17.7383 36.0366 17.3787 35.7188 17.3216 35.3452C17.2554 34.9118 17.5985 34.3711 17.9707 34.3222C18.3057 34.2783 18.6294 34.5773 18.6869 34.984Z" fill="#FF630B"/>
<path d="M24.8782 29.8289C24.8816 29.3936 25.092 29.0747 25.3762 29.0268C25.6921 28.9736 25.9095 29.1295 26.0726 29.5267C26.0898 29.5686 26.1067 29.6108 26.1209 29.6538C26.1804 29.8155 26.1888 29.9923 26.1447 30.1591C26.1007 30.3259 26.0065 30.4742 25.8755 30.583C25.7613 30.6853 25.4958 30.7405 25.3709 30.6744C25.0403 30.4996 24.8434 30.194 24.8782 29.8289Z" fill="#FF630B"/>
<path d="M28.5445 27.3382C28.5538 27.7424 28.4405 27.9822 28.1637 28.0983C27.8668 28.223 27.6618 27.9972 27.5745 27.7873C27.4578 27.5154 27.4169 27.2157 27.4563 26.9214C27.4841 26.7612 27.7942 26.5103 27.9195 26.5418C28.1317 26.595 28.3211 26.8203 28.4744 27.0118C28.5359 27.0885 28.5394 27.2139 28.5415 27.288C28.5421 27.3102 28.5426 27.3278 28.5445 27.3382Z" fill="#FF630B"/>
<path d="M26.556 7.16841C26.5115 7.16308 26.4689 7.14707 26.4316 7.12168C26.3943 7.09629 26.3634 7.06224 26.3413 7.02229C26.3192 6.98235 26.3067 6.93763 26.3046 6.89178C26.3026 6.84593 26.3111 6.80023 26.3296 6.75839C26.3804 6.65128 26.4542 6.55728 26.5453 6.48336C26.7272 6.33953 26.8876 6.4021 26.9573 6.62451C27.0315 6.86151 26.7931 7.18472 26.556 7.16841Z" fill="#FF630B"/>
<path d="M28.8884 10.1763C28.8503 10.1523 28.8182 10.1193 28.7948 10.0802C28.7714 10.041 28.7574 9.99679 28.7538 9.95104C28.7503 9.90528 28.7573 9.85931 28.7743 9.81685C28.7913 9.7744 28.8179 9.73665 28.8518 9.70668C28.942 9.63155 29.0475 9.57819 29.1606 9.55056C29.3847 9.49878 29.5043 9.62483 29.476 9.85661C29.4458 10.1036 29.0966 10.2936 28.8884 10.1763Z" fill="#FF630B"/>
<path d="M30.8097 13.748C30.7864 13.7088 30.7724 13.6645 30.769 13.6187C30.7655 13.573 30.7726 13.527 30.7896 13.4846C30.8067 13.4421 30.8333 13.4044 30.8673 13.3745C30.9013 13.3446 30.9417 13.3234 30.9852 13.3124C31.0988 13.2875 31.2165 13.2891 31.3294 13.3171C31.5521 13.3752 31.6028 13.5432 31.4749 13.7366C31.3386 13.9425 30.9433 13.9493 30.8097 13.748Z" fill="#FF630B"/>
<path d="M31.2624 17.4895C31.2518 17.4449 31.2517 17.3983 31.262 17.3537C31.2723 17.309 31.2927 17.2674 31.3217 17.2324C31.3506 17.1973 31.3871 17.1698 31.4284 17.1519C31.4696 17.134 31.5144 17.1264 31.5591 17.1296C31.6748 17.1414 31.7863 17.1797 31.8856 17.2417C32.0803 17.3667 32.0786 17.5426 31.8992 17.6867C31.7081 17.8402 31.3296 17.723 31.2624 17.4895Z" fill="#FF630B"/>
<path d="M31.4521 21.3363C31.4573 21.2907 31.4728 21.247 31.4976 21.2088C31.5223 21.1705 31.5555 21.1388 31.5945 21.1161C31.6334 21.0935 31.677 21.0806 31.7218 21.0785C31.7665 21.0763 31.8111 21.0851 31.8519 21.1039C31.9565 21.156 32.0482 21.2315 32.1204 21.3248C32.2609 21.5112 32.2 21.6756 31.983 21.7472C31.7519 21.8235 31.4363 21.5793 31.4521 21.3363Z" fill="#FF630B"/>
<path d="M30.7955 20.8694C30.808 20.9323 30.8077 20.9971 30.7946 21.0598C30.7815 21.1225 30.7559 21.1818 30.7194 21.2339C30.6829 21.286 30.6363 21.3298 30.5825 21.3626C30.5287 21.3954 30.4689 21.4164 30.4068 21.4244C30.2499 21.4436 30.003 21.3198 29.9183 21.1816C29.7935 20.9778 29.7029 20.6944 29.7319 20.4625C29.7778 20.0962 30.2098 19.9926 30.4459 20.2736C30.5914 20.4466 30.7522 20.6415 30.7955 20.8694Z" fill="#FF630B"/>
<path d="M27.1075 32.3793C27.1049 32.6744 26.9 32.9838 26.6774 32.9981C26.4026 33.0158 26.3079 32.808 26.2151 32.6044C26.2076 32.5879 26.2 32.5714 26.1924 32.5551C26.1899 32.549 26.1875 32.5429 26.1854 32.5367C26.1845 32.5339 26.1836 32.5311 26.1827 32.5283L26.182 32.5258L26.1815 32.5241L26.1812 32.5227C26.1352 32.3922 26.1286 32.2505 26.1623 32.116C26.1959 31.9816 26.2683 31.8607 26.37 31.769C26.4473 31.6965 26.6379 31.6605 26.7258 31.7078C26.8485 31.7667 26.9508 31.8625 27.019 31.9824C27.0872 32.1024 27.1181 32.2408 27.1075 32.3793Z" fill="#FF630B"/>
<path d="M28.2542 18.9368C28.7555 19.1809 28.8986 19.5849 28.9508 20.0126C28.9906 20.3382 28.8701 20.6364 28.5211 20.8442C28.2161 20.413 28.2329 19.9531 28.2504 19.4725V19.4719C28.2568 19.2962 28.2634 19.1177 28.2542 18.9368Z" fill="#FF630B"/>
<path d="M29.6133 17.0548C29.6157 16.8709 29.6914 16.6736 29.9868 16.6681C30.31 16.6621 30.5969 17.0291 30.5882 17.4477C30.5832 17.686 30.5018 17.8802 30.2298 17.8967C29.917 17.9156 29.6154 17.5352 29.6133 17.0548Z" fill="#FF630B"/>
<path d="M26.2705 8.14161C26.2734 8.29548 26.1574 8.43576 25.9142 8.45229C25.6104 8.47293 25.2389 8.08486 25.2227 7.73563C25.2106 7.47382 25.3784 7.27645 25.6124 7.27721C25.8835 7.27807 26.2588 7.71901 26.2705 8.14161Z" fill="#FF630B"/>
<path d="M29.1866 13.7075C29.1904 13.4652 29.262 13.2787 29.5409 13.2757C29.8391 13.2726 30.1625 13.6729 30.156 14.0508C30.1518 14.2975 30.0406 14.4676 29.774 14.4627C29.4749 14.4571 29.1827 14.0752 29.1866 13.7075Z" fill="#FF630B"/>
<path d="M28.2796 18.0264V16.1993C28.6796 16.4062 28.8992 16.8464 28.8692 17.3592C28.8486 17.7116 28.6888 17.9376 28.2796 18.0264Z" fill="#FF630B"/>
<path d="M29.0156 23.851C29.1026 23.8685 29.1869 23.8826 29.2685 23.8963C29.4579 23.9279 29.6332 23.9572 29.7949 24.0221C29.911 24.0686 30.0648 24.266 30.0459 24.3635C29.9987 24.5678 29.8959 24.7543 29.7494 24.9011C29.6946 24.957 29.4743 24.898 29.3645 24.8309C29.0326 24.6279 29.0037 24.2845 29.0156 23.851Z" fill="#FF630B"/>
<path d="M29.8614 29.2838C29.8573 29.5335 29.6531 29.7992 29.4621 29.8033C29.2252 29.8083 28.9997 29.488 28.9989 29.1452C28.9981 28.8417 29.1561 28.6257 29.374 28.6323C29.606 28.6394 29.8662 28.9871 29.8614 29.2838Z" fill="#FF630B"/>
<path d="M30.7374 25.3837C30.7429 25.203 30.7744 25.0003 31.0455 24.98C31.2741 24.9629 31.5402 25.2818 31.5354 25.5746C31.5316 25.8069 31.4196 25.975 31.1866 26.0032C30.9583 26.0309 30.7443 25.7388 30.7374 25.3837Z" fill="#FF630B"/>
<path d="M27.2507 22.7512L28.1255 23.4492C27.8273 23.6864 27.4689 23.7085 27.236 23.5189C27.0569 23.3731 27.0535 23.1845 27.2507 22.7512Z" fill="#FF630B"/>
<path fill-rule="evenodd" clip-rule="evenodd" d="M96.2695 9.74677C96.2504 9.74629 96.232 9.74689 96.2143 9.74851C89.8319 9.97604 87.417 19.1756 92.2661 23.1585C94.3061 24.8342 97.3036 25.0335 99.5427 23.6495C102.238 21.9835 103.138 18.563 102.639 15.5232C102.097 12.2184 99.6011 9.85695 96.3246 9.74838C96.3069 9.74681 96.2885 9.74625 96.2695 9.74677ZM96.2695 22.6317C98.8009 22.4896 99.1647 19.1873 99.1646 17.1602C99.1645 15.2729 98.8024 11.6822 96.2695 11.6815C93.736 11.6807 93.362 15.272 93.3619 17.1602C93.3618 19.1889 93.7378 22.4896 96.2695 22.6317Z" fill="white"/>
<path fill-rule="evenodd" clip-rule="evenodd" d="M82.1784 9.74851C82.1961 9.74689 82.2145 9.74629 82.2335 9.74677C82.2526 9.74625 82.2709 9.74681 82.2886 9.74838C85.5652 9.85695 88.0613 12.2184 88.6032 15.5232C89.1016 18.563 88.2021 21.9835 85.5067 23.6495C83.2677 25.0335 80.2702 24.8342 78.2301 23.1585C73.381 19.1756 75.796 9.97602 82.1784 9.74851ZM82.2335 22.6317C79.7017 22.4896 79.3258 19.1889 79.3259 17.1602C79.326 15.272 79.7 11.6807 82.2335 11.6815C84.7664 11.6822 85.1284 15.2729 85.1285 17.1602C85.1287 19.1873 84.7649 22.4896 82.2335 22.6317Z" fill="white"/>
<path fill-rule="evenodd" clip-rule="evenodd" d="M46.3169 10.0035H48.4628L48.4652 10.0035H51.2455C51.3562 10.0052 51.4619 10.0509 51.5401 10.1312C51.5591 10.1506 51.5761 10.1717 51.5909 10.194C51.6058 10.1716 51.6228 10.1506 51.6417 10.1311C51.72 10.0509 51.8257 10.0051 51.9364 10.0035H57.2053C57.2089 10.0035 57.2126 10.0034 57.2162 10.0034C57.2188 10.0035 57.2213 10.0035 57.2239 10.0035C57.2305 10.0035 57.237 10.0037 57.2434 10.0039C60.285 10.0662 63.4334 11.5115 62.8935 15.1614C62.4212 18.3543 59.225 18.9314 56.569 18.9817C56.5713 20.0551 56.5785 21.1284 56.5949 22.2018L57.9699 22.3553C58.1957 22.3805 58.3891 22.5341 58.3891 22.7849V23.7261C58.3875 23.8396 58.3429 23.9479 58.2646 24.0281C58.1863 24.1084 58.0806 24.1541 57.9699 24.1558H51.9364C51.8257 24.1541 51.72 24.1084 51.6417 24.0281C51.5635 23.9479 51.5188 23.8396 51.5172 23.7261V22.7849C51.5172 22.5318 51.711 22.3805 51.9364 22.3553L53.1675 22.2178C53.2217 18.7899 53.2216 15.3645 53.1672 11.9415L51.9364 11.8041C51.7959 11.7884 51.6679 11.723 51.5913 11.6154C51.5363 11.7039 51.4539 11.774 51.3569 11.7888L50.003 11.9954V23.8149C50.0014 23.9284 49.9568 24.0367 49.8785 24.1169C49.8002 24.1972 49.6945 24.2429 49.5839 24.2446C49.5014 24.2446 49.4236 24.2451 49.35 24.2456C48.5384 24.2509 48.2292 24.2529 47.7192 23.5344L41.4843 14.7518V22.1376L43.2111 22.3553C43.4366 22.3838 43.6302 22.5318 43.6302 22.785V23.7261C43.6287 23.8396 43.584 23.9479 43.5057 24.0281C43.4275 24.1084 43.3218 24.1541 43.2111 24.1558H38.2825C38.1718 24.1541 38.0661 24.1084 37.9878 24.0281C37.9095 23.9479 37.8649 23.8396 37.8633 23.7261V22.7849C37.8633 22.614 37.9922 22.3967 38.171 22.3707L39.5249 22.1737V15.9227C39.5249 15.5243 39.5314 15.1239 39.5379 14.7229V14.7224C39.551 13.9187 39.5641 13.1125 39.5249 12.3149C39.5191 12.1959 39.5182 12.1181 39.5177 12.065V12.0649C39.5169 11.9952 39.5166 11.968 39.506 11.9459C39.5046 11.9428 39.5029 11.9398 39.501 11.9369L39.4991 11.9365C39.3964 11.9178 39.2904 11.9089 39.185 11.9L39.1843 11.8999L39.1842 11.8999C39.1321 11.8955 39.08 11.8911 39.0287 11.8855L38.3444 11.8114C38.1186 11.7869 37.9253 11.632 37.9253 11.3818V10.4332C37.9268 10.3197 37.9715 10.2114 38.0498 10.1312C38.128 10.0509 38.2337 10.0052 38.3444 10.0035H40.4629C40.5901 10.0035 40.7533 9.98843 40.9307 9.97201C41.353 9.93292 41.8554 9.88642 42.1417 10.0189C42.6191 10.2397 43.0437 10.9604 43.3932 11.5534C43.5248 11.7768 43.6458 11.982 43.7548 12.1357L48.0437 18.1769V12.0126L46.3169 11.8041C46.0913 11.7768 45.8977 11.6268 45.8977 11.3745V10.4332C45.8993 10.3197 45.944 10.2114 46.0222 10.1312C46.1005 10.0509 46.2062 10.0052 46.3169 10.0035ZM56.5679 17.1015H57.103C59.0645 17.033 60.1214 15.2902 59.5051 13.3805C59.0667 12.0221 57.7876 11.9112 56.5962 11.9028C56.5693 13.6356 56.5679 15.3685 56.5679 17.1015Z" fill="white"/>
<path d="M32.5783 10.0035H37.2561C37.3668 10.0051 37.4725 10.0509 37.5508 10.1311C37.6291 10.2114 37.6737 10.3197 37.6753 10.4332V11.3745C37.6753 11.6285 37.4814 11.7779 37.2561 11.8041L36.0176 11.9481C36.0179 12.5263 36.019 13.1046 36.02 13.6829C36.0224 15.0934 36.0249 16.504 36.0175 17.9145C36.0044 20.4379 35.3844 23.2001 32.8169 24.149C30.39 25.046 27.1788 24.3478 26.0019 21.8228C25.4266 20.5885 25.4076 19.2347 25.4076 17.8966C25.4076 17.7652 25.4076 17.6339 25.4077 17.5026C25.4078 15.6437 25.4079 13.7848 25.3798 11.926L24.2727 11.8041C24.0468 11.7792 23.8535 11.625 23.8535 11.3744V10.4331C23.8551 10.3197 23.8998 10.2113 23.978 10.1311C24.0563 10.0509 24.162 10.0051 24.2727 10.0035H30.2058C30.3165 10.0051 30.4222 10.0509 30.5004 10.1311C30.5787 10.2113 30.6234 10.3197 30.625 10.4331V11.3744C30.625 11.6274 30.4312 11.7792 30.2058 11.8041L28.8055 11.9584C28.7932 12.4748 28.7744 12.9981 28.7556 13.5253C28.6861 15.4696 28.6147 17.4654 28.8542 19.3531C29.0194 20.6555 29.514 21.7812 30.8926 21.9828C32.0523 22.1525 33.1031 21.764 33.6153 20.6426C34.1519 19.4676 34.1092 17.9569 34.0702 16.579C34.0604 16.2316 34.0508 15.8926 34.0508 15.5696V11.9724L32.5783 11.8041C32.3525 11.7783 32.1591 11.6257 32.1591 11.3745V10.4332C32.1607 10.3197 32.2054 10.2114 32.2836 10.1311C32.3619 10.0509 32.4676 10.0051 32.5783 10.0035Z" fill="white"/>
<path fill-rule="evenodd" clip-rule="evenodd" d="M74.5389 14.1293C74.4169 15.6796 73.3651 16.6415 72.0879 17.1718C73.0198 17.712 73.5471 18.6247 73.8525 19.8731C73.8539 19.8783 73.8552 19.8837 73.8564 19.8891L73.8571 19.892L73.8581 19.8963L73.8589 19.8997L74.3912 22.2221L75.5521 22.3553C75.7779 22.3812 75.9713 22.5336 75.9713 22.785V23.7261C75.9703 23.8199 75.9398 23.9108 75.8843 23.9855C75.8289 24.0601 75.7515 24.1144 75.6635 24.1404C73.7068 24.6346 71.4631 24.6347 70.9269 22.2952C70.8371 21.9035 70.7611 21.5081 70.685 21.1127L70.6848 21.1117C70.5925 20.6316 70.5002 20.1515 70.3833 19.678C70.025 18.2262 69.242 18.0488 68.0737 18.0277C68.0748 19.4234 68.0801 20.8191 68.1012 22.2147L69.3606 22.3553C69.5864 22.3806 69.7797 22.5341 69.7797 22.785V23.7262C69.7782 23.8396 69.7335 23.9479 69.6552 24.0282C69.5769 24.1084 69.4712 24.1542 69.3606 24.1558H63.4706C63.3599 24.1542 63.2542 24.1084 63.1759 24.0282C63.0976 23.9479 63.053 23.8396 63.0514 23.7262V22.785C63.0514 22.5318 63.2452 22.3805 63.4706 22.3553L64.7017 22.2178C64.7558 18.79 64.7557 15.3645 64.7013 11.9415L63.4706 11.8041C63.2448 11.7789 63.0514 11.6253 63.0514 11.3745V10.4332C63.053 10.3197 63.0976 10.2114 63.1759 10.1312C63.2542 10.0509 63.3599 10.0052 63.4706 10.0035H67.0642C67.3662 10.0035 67.6721 9.99771 67.9801 9.99184C69.2806 9.96703 70.6171 9.94153 71.8453 10.3519C73.4916 10.9021 74.6842 12.284 74.5389 14.1293ZM71.2058 13.8405C71.2646 15.8875 69.6313 16.1255 68.0735 16.1508C68.0742 14.734 68.078 13.3173 68.1003 11.9006C69.5314 11.8949 71.1514 11.947 71.2058 13.8405Z" fill="white"/>
<path d="M108.158 17.9399H109.994L110.216 19.5519C110.242 19.7352 110.454 19.8673 110.621 19.8673H111.63C111.74 19.8657 111.846 19.8199 111.924 19.7396C112.002 19.6594 112.047 19.5511 112.049 19.4376V14.709C112.047 14.5956 112.002 14.4873 111.924 14.407C111.846 14.3268 111.74 14.281 111.63 14.2794H110.621C110.455 14.2794 110.243 14.4116 110.216 14.5948L110.009 16.0264H108.159C108.16 14.688 108.166 13.3497 108.186 12.0115H111.451L111.809 14.1359C111.84 14.3191 112.042 14.4513 112.213 14.4513H113.581C113.691 14.4501 113.797 14.4045 113.876 14.3241C113.954 14.2438 113.999 14.1353 114 14.0217L113.863 10.5137C113.861 10.4004 113.816 10.2922 113.738 10.2121C113.66 10.1319 113.554 10.086 113.444 10.0841H103.527C103.416 10.0857 103.31 10.1315 103.232 10.2117C103.154 10.2919 103.109 10.4003 103.108 10.5137V11.455C103.108 11.7058 103.301 11.8594 103.527 11.8846L104.757 12.0221C104.812 15.4451 104.812 18.8705 104.758 22.2984L103.527 22.4359C103.301 22.4611 103.108 22.6123 103.108 22.8655V23.8067C103.109 23.9201 103.154 24.0285 103.232 24.1087C103.31 24.1889 103.416 24.2347 103.527 24.2363H109.56C109.671 24.2347 109.777 24.1889 109.855 24.1087C109.933 24.0285 109.978 23.9201 109.979 23.8067V22.8655C109.979 22.6147 109.786 22.4611 109.56 22.4359L108.186 22.2824C108.164 20.8349 108.159 19.3874 108.158 17.9399Z" fill="white"/>
<path fill-rule="evenodd" clip-rule="evenodd" d="M76.1747 17.1601C76.1747 12.6541 79.1606 10.1763 82.2718 10.1763C85.3827 10.1763 88.3564 12.54 88.3564 17.1601C88.3564 21.666 85.4024 24.1439 82.2718 24.1439C79.141 24.1439 76.1747 21.7801 76.1747 17.1601ZM78.945 17.1601C78.945 20.3275 79.9171 23.0612 82.2718 23.0612C84.6263 23.0612 85.586 20.3275 85.586 17.1601C85.586 14 84.6263 11.2517 82.2718 11.2517C79.9171 11.2517 78.945 14 78.945 17.1601Z" fill="#FF630B"/>
<path d="M32.6166 10.433V11.3744L34.5083 11.5905V17.8965C34.5083 21.1964 33.4176 22.4474 31.4206 22.4474C29.4981 22.4474 28.3997 21.3581 28.3997 18.1028V16.5418C28.3997 14.872 28.4014 13.2075 28.4327 11.5739L30.2442 11.3743V10.433H24.311V11.3743L25.8311 11.5418C25.8632 13.2119 25.8651 14.8883 25.8651 16.5418V18.7132C25.8651 22.5212 27.8744 24.0633 30.7378 24.0633C33.6785 24.0633 35.6367 22.3827 35.6367 18.1527V11.5671L37.2945 11.3744V10.433L32.6166 10.433Z" fill="#FF630B"/>
<path d="M46.3552 10.433V11.3744L48.5011 11.6335V19.4939L42.0686 10.433H38.3828V11.3816L39.7513 11.53L39.9824 11.8556V22.5432L38.3208 22.7848V23.726H43.2494V22.7848L41.1035 22.5142V13.4346L48.4725 23.8148H49.6222V11.628L51.2838 11.3744V10.433H46.3552Z" fill="#FF630B"/>
<path fill-rule="evenodd" clip-rule="evenodd" d="M51.9748 10.433H57.2623C60.931 10.433 62.5713 12.0393 62.5713 14.4059C62.5713 16.6721 61.1018 18.5558 56.9845 18.5558H56.1876C56.1882 19.8447 56.1937 21.1881 56.2205 22.5851L58.0084 22.7848V23.726H51.9748V22.7848L53.6188 22.6012C53.6507 20.9328 53.6525 19.2311 53.6525 17.5143V16.6447C53.6525 14.955 53.6506 13.2524 53.6184 11.5579L51.9748 11.3744V10.433ZM56.1871 17.531H57.1414C59.2014 17.531 60.0968 16.2653 60.0967 14.3985C60.0967 12.5063 59.0914 11.4725 57.063 11.4725H56.2227C56.1891 13.1683 56.1871 14.8985 56.1871 16.6447V17.531Z" fill="#FF630B"/>
<path fill-rule="evenodd" clip-rule="evenodd" d="M73.4906 20.0032C73.1109 18.2739 72.4392 17.4049 70.7684 17.1338C73.18 16.7212 74.1698 15.3141 74.1698 13.8567C74.1698 11.7061 72.4391 10.433 69.4049 10.433H63.5089V11.3744L65.1525 11.5579C65.1847 13.2524 65.1866 14.955 65.1866 16.6447V17.5143C65.1866 19.2311 65.1848 20.9328 65.1529 22.6012L63.5089 22.7848V23.726H69.3989V22.7848L67.7266 22.5981C67.6957 20.9689 67.6927 19.3158 67.6927 17.5951H68.5336C69.9267 17.5951 70.5278 18.0449 70.8185 19.5281L71.3975 22.3163C71.6107 23.5617 72.3682 23.9705 73.8099 23.9705C74.5543 23.9705 74.9445 23.8977 75.5905 23.726V22.7848L74.0886 22.6125L73.4906 20.0032ZM67.6925 16.5832C67.6926 14.772 67.6942 13.1216 67.7268 11.4725H68.9907C70.8016 11.4725 71.6669 12.3207 71.6669 13.967C71.6669 15.4209 70.8654 16.5832 68.8403 16.5832H67.6925Z" fill="#FF630B"/>
<path fill-rule="evenodd" clip-rule="evenodd" d="M96.3078 10.1763C93.1966 10.1763 90.2107 12.6541 90.2107 17.1601C90.2107 21.7801 93.177 24.1439 96.3078 24.1439C99.4384 24.1439 102.392 21.666 102.392 17.1601C102.392 12.54 99.4187 10.1763 96.3078 10.1763ZM96.3078 23.0612C93.953 23.0612 92.981 20.3275 92.981 17.1601C92.981 14 93.953 11.2517 96.3078 11.2517C98.6623 11.2517 99.622 14 99.622 17.1601C99.622 20.3275 98.6623 23.0612 96.3078 23.0612Z" fill="#FF630B"/>
<path d="M111.84 11.5818H107.812C107.781 13.1809 107.778 14.811 107.777 16.4559H110.406L110.659 14.7089H111.668V19.4375H110.659L110.393 17.5101H107.777C107.777 19.2975 107.78 20.9951 107.811 22.6657L109.599 22.8654V23.8066H103.565V22.8654L105.209 22.6818C105.241 21.0133 105.243 19.3117 105.243 17.5949V16.7253C105.243 15.0356 105.241 13.333 105.209 11.6384L103.565 11.4549V10.5136H113.482L113.619 14.0216H112.252L111.84 11.5818Z" fill="#FF630B"/>
</svg>
