<svg width="24" height="24" viewBox="0 0 24 24" fill="none" xmlns="http://www.w3.org/2000/svg">
<path d="M23.5995 23.5995C24.1333 23.0656 24.1333 22.2001 23.5995 21.6662L13.9333 12L23.5995 2.33379C24.1334 1.79994 24.1334 0.934385 23.5995 0.400534C23.0657 -0.133322 22.2001 -0.133322 21.6663 0.400534L12 10.0668L2.33366 0.400388C1.79979 -0.133463 0.934267 -0.133463 0.4004 0.400388C-0.133467 0.934244 -0.133467 1.79979 0.4004 2.33365L10.0668 12L0.400442 21.6664C-0.133425 22.2002 -0.133425 23.0658 0.400442 23.5996C0.934308 24.1335 1.79983 24.1335 2.3337 23.5996L12 13.9333L21.6662 23.5995C22.2001 24.1333 23.0656 24.1333 23.5995 23.5995Z" fill="#FCFCFC"/>
</svg>
