<svg width="24" height="24" viewBox="0 0 24 24" fill="none" xmlns="http://www.w3.org/2000/svg">
<path d="M20 0C17.7891 0 16 1.78906 16 4C16 4.27734 16.0391 4.55078 16.0938 4.8125L7 9.375C6.26562 8.53516 5.20312 8 4 8C1.78906 8 0 9.78906 0 12C0 14.2109 1.78906 16 4 16C5.20312 16 6.26562 15.4648 7 14.625L16.0938 19.1875C16.0391 19.4492 16 19.7227 16 20C16 22.2109 17.7891 24 20 24C22.2109 24 24 22.2109 24 20C24 17.7891 22.2109 16 20 16C18.7969 16 17.7344 16.5352 17 17.375L7.90625 12.8125C7.96094 12.5508 8 12.2773 8 12C8 11.7227 7.96094 11.4492 7.90625 11.1875L17 6.625C17.7344 7.46484 18.7969 8 20 8C22.2109 8 24 6.21094 24 4C24 1.78906 22.2109 0 20 0Z" fill="#595959"/>
</svg>
