<svg width="24" height="24" viewBox="0 0 24 24" fill="none" xmlns="http://www.w3.org/2000/svg">
<path fill-rule="evenodd" clip-rule="evenodd" d="M18.2186 21.8765C19.6564 22.5055 20.1956 21.1875 20.1956 21.1875L24 2.07585C23.97 0.787759 22.2326 1.5666 22.2326 1.5666L0.934237 9.9242C0.934237 9.9242 -0.0842511 10.2837 0.00561555 10.9127C0.0954822 11.5418 0.904282 11.8414 0.904282 11.8414L6.26632 13.6387C6.26632 13.6387 7.88392 18.9408 8.21343 19.9593C8.51299 20.9478 8.78259 20.9778 8.78259 20.9778C9.08214 21.0976 9.35174 20.8879 9.35174 20.8879L12.8266 17.7426L18.2186 21.8765ZM19.1472 5.46113C19.1472 5.46113 19.8961 5.0118 19.8662 5.46113C19.8662 5.46113 19.986 5.52104 19.5966 5.94042C19.2371 6.29988 10.7597 13.9086 9.62136 14.9271C9.5315 14.987 9.47159 15.0769 9.47159 15.1967L9.14207 18.0125C9.08216 18.3121 8.69274 18.342 8.60287 18.0724L7.19496 13.4593C7.13505 13.2795 7.19496 13.0698 7.3747 12.95L19.1472 5.46113Z" fill="#419FD9"/>
</svg>
