<svg width="20" height="20" viewBox="0 0 20 20" fill="none" xmlns="http://www.w3.org/2000/svg">
<path d="M17.8675 1.95127C17.3735 1.4951 15.3734 0.0345761 10.915 0.0145688C10.915 0.0145688 5.65976 -0.305547 3.09788 2.05531C1.67151 3.48783 1.1695 5.58058 1.1177 8.18152C1.06591 10.7785 0.998172 15.6482 5.67171 16.9687H5.6757L5.67171 18.9814C5.67171 18.9814 5.64382 19.7977 6.17771 19.9618C6.82316 20.1619 7.20565 19.5416 7.82321 18.8734C8.16187 18.5053 8.62803 17.9691 8.98263 17.5569C12.178 17.825 14.6363 17.2088 14.9152 17.1168C15.5606 16.9047 19.2142 16.4365 19.8079 11.5667C20.4214 6.55694 19.5091 3.38379 17.8675 1.95127ZM18.4094 11.2146C17.9074 15.2801 14.9471 15.5362 14.4012 15.7122C14.1701 15.7883 12.0107 16.3285 9.2934 16.1484C9.2934 16.1484 7.2694 18.6013 6.63989 19.2375C6.54028 19.3376 6.42474 19.3776 6.34904 19.3576C6.24146 19.3296 6.20959 19.2015 6.21357 19.0134C6.21357 18.7413 6.22951 15.6642 6.22951 15.6642C6.22552 15.6642 6.22552 15.6642 6.22951 15.6642C2.27314 14.5638 2.50422 10.4183 2.54805 8.24955C2.59188 6.08076 2.99827 4.30012 4.2055 3.10369C6.36896 1.13497 10.8353 1.42708 10.8353 1.42708C14.6044 1.44309 16.4093 2.5835 16.8276 2.96364C18.2181 4.16407 18.9273 7.02511 18.4094 11.2146Z" fill="#FF630B"/>
<path d="M12.7518 8.32561C12.6203 8.32561 12.5087 8.22157 12.5008 8.08552C12.4569 7.22521 12.0545 6.80506 11.2338 6.76104C11.0943 6.75304 10.9867 6.633 10.9947 6.49295C11.0027 6.3529 11.1222 6.24486 11.2617 6.25286C12.3454 6.31288 12.951 6.93711 13.0068 8.05751C13.0147 8.19756 12.9072 8.31761 12.7677 8.32161C12.7597 8.32561 12.7558 8.32561 12.7518 8.32561Z" fill="#FF630B"/>
<path d="M14.0426 8.75815H14.0386C13.8992 8.75415 13.7876 8.63811 13.7916 8.49806C13.8115 7.63375 13.5645 6.93349 13.0386 6.35728C12.5167 5.78108 11.7955 5.46896 10.8433 5.40094C10.7039 5.38893 10.6003 5.26889 10.6122 5.12884C10.6242 4.98879 10.7437 4.88475 10.8832 4.89676C11.9589 4.97678 12.8075 5.35292 13.4131 6.01716C14.0227 6.6854 14.3175 7.52171 14.2976 8.51006C14.2936 8.65011 14.1781 8.75815 14.0426 8.75815Z" fill="#FF630B"/>
<path d="M15.3654 9.27793C15.226 9.27793 15.1144 9.16589 15.1144 9.02584C15.1025 7.47728 14.6602 6.29685 13.7598 5.41253C12.8713 4.54022 11.7437 4.09606 10.417 4.08405C10.2775 4.08405 10.166 3.96801 10.166 3.82796C10.166 3.68791 10.2815 3.57587 10.417 3.57587C11.8792 3.58787 13.1223 4.08005 14.1064 5.0484C15.0945 6.01675 15.6005 7.35323 15.6164 9.01784C15.6204 9.16189 15.5088 9.27793 15.3654 9.27793C15.3694 9.27793 15.3694 9.27793 15.3654 9.27793Z" fill="#FF630B"/>
<path d="M11.2935 11.4587C11.2935 11.4587 11.6481 11.4907 11.8394 11.2546L12.2099 10.7864C12.3892 10.5543 12.8235 10.4063 13.2458 10.6424C13.4809 10.7744 13.9072 11.0385 14.1701 11.2346C14.453 11.4427 15.0268 11.9228 15.0307 11.9268C15.3057 12.1589 15.3694 12.499 15.1821 12.8632C15.1821 12.8632 15.1821 12.8672 15.1821 12.8712C14.9909 13.2113 14.7319 13.5314 14.4092 13.8275C14.4052 13.8275 14.4052 13.8315 14.4012 13.8315C14.1343 14.0556 13.8713 14.1836 13.6163 14.2117C13.5845 14.2197 13.5486 14.2197 13.5008 14.2197C13.3892 14.2197 13.2777 14.2036 13.1661 14.1676L13.1581 14.1556C12.7597 14.0436 12.0983 13.7635 10.9987 13.1513C10.2815 12.7551 9.68785 12.351 9.18185 11.9468C8.9149 11.7348 8.64397 11.4987 8.36508 11.2186C8.35711 11.2106 8.34515 11.1986 8.33719 11.1906C8.32922 11.1826 8.31726 11.1706 8.3093 11.1625C8.30133 11.1545 8.28937 11.1425 8.28141 11.1345C8.27344 11.1265 8.26148 11.1145 8.25352 11.1065C7.9786 10.8264 7.73955 10.5543 7.52838 10.2862C7.12597 9.78205 6.72356 9.18183 6.32912 8.46157C5.71953 7.35317 5.44063 6.68893 5.32907 6.29279L5.31712 6.28478C5.28126 6.17274 5.26532 6.0607 5.26532 5.94866C5.26532 5.90065 5.26532 5.86463 5.27329 5.83262C5.30516 5.57253 5.43266 5.31243 5.65179 5.04434C5.65179 5.04033 5.65578 5.04033 5.65578 5.03633C5.95061 4.70821 6.26935 4.45212 6.60802 4.26005C6.60802 4.26005 6.612 4.26005 6.61598 4.26005C6.97457 4.07198 7.31323 4.13601 7.5483 4.41211C7.5483 4.41211 8.0304 4.99232 8.23758 5.27642C8.43281 5.54452 8.69577 5.96867 8.82725 6.20476C9.06232 6.62891 8.9149 7.06507 8.68382 7.24513L8.21766 7.61727C7.98259 7.80934 8.01446 8.16546 8.01446 8.16546C8.01446 8.16546 8.70374 10.7984 11.2935 11.4587Z" fill="#FF630B"/>
</svg>
