<svg width="34" height="20" viewBox="0 0 34 20" fill="none" xmlns="http://www.w3.org/2000/svg">
<path fill-rule="evenodd" clip-rule="evenodd" d="M32.8887 1.52368C32.4496 1.18602 30.8714 1.18602 29.3288 1.18602C28.1391 1.15227 26.9488 1.21591 25.7689 1.37634C25.4247 1.50527 24.6594 3.42687 23.6685 5.3976C22.5294 7.62004 21.147 9.77495 20.2688 9.73812C19.0822 9.73812 19.3907 6.0545 19.4738 3.37775C19.4738 1.60962 19.2127 1.03867 18.9695 0.885183C18.2526 0.504413 17.4935 0.215773 16.7089 0.0256794C16.7089 0.0256794 11.7251 -0.361099 11.0309 1.86748C11.9861 2.00255 13.6177 1.70172 12.9829 8.58392C12.9295 8.92158 12.2175 11.7457 9.90358 7.92701C9.31026 6.96927 7.10905 1.22899 6.34367 1.17373C3.79241 1.12462 1.25301 1.00798 0.374905 1.51141C-0.503204 2.01483 1.47848 5.95627 4.75359 11.2422C7.39978 15.5828 10.218 18.9533 15.0951 19.7944C16.0266 19.8926 18.3999 19.997 19.1653 19.6225C19.6696 19.3707 19.0347 15.638 20.7732 15.2635C21.5385 15.1162 24.517 19.1681 25.6384 19.6225C26.8465 19.9547 28.1009 20.0689 29.3466 19.9601C31.0079 19.911 32.9065 20.132 33.0726 18.9533C33.482 16.3747 28.0472 13.0104 27.8989 11.4264C27.7684 10.2845 29.8865 8.17872 30.9604 6.56407C32.2894 4.61176 33.7549 2.26655 32.9243 1.51141L32.8887 1.52368Z" fill="#FF630B"/>
</svg>
