<svg width="35" height="24" viewBox="0 0 35 24" fill="none" xmlns="http://www.w3.org/2000/svg">
<path d="M33.5125 2.31273C32.5631 0.628363 31.5328 0.318545 29.435 0.200727C27.3394 0.0589091 22.0697 0 17.5044 0C12.9303 0 7.65844 0.0589093 5.565 0.198546C3.47156 0.318546 2.43906 0.626182 1.48094 2.31273C0.503125 3.99491 0 6.89236 0 11.9935C0 11.9978 0 12 0 12C0 12.0044 0 12.0065 0 12.0065V12.0109C0 17.0902 0.503125 20.0095 1.48094 21.6742C2.43906 23.3585 3.46937 23.664 5.56281 23.8058C7.65844 23.928 12.9303 24 17.5044 24C22.0697 24 27.3394 23.928 29.4372 23.808C31.535 23.6662 32.5653 23.3607 33.5147 21.6764C34.5013 20.0116 35 17.0924 35 12.0131C35 12.0131 35 12.0065 35 12.0022C35 12.0022 35 11.9978 35 11.9956C35 6.89236 34.5013 3.99491 33.5125 2.31273ZM13.125 18.5455V5.45455L24.0625 12L13.125 18.5455Z" fill="#FCFCFC"/>
</svg>
