<svg width="20" height="20" viewBox="0 0 20 20" fill="none" xmlns="http://www.w3.org/2000/svg">
<path fill-rule="evenodd" clip-rule="evenodd" d="M0 10C0 5.80863 0 3.71294 1.05041 2.26718C1.38964 1.80026 1.80026 1.38964 2.26718 1.05041C3.71294 0 5.80863 0 10 0C14.1914 0 16.2871 0 17.7328 1.05041C18.1997 1.38964 18.6104 1.80026 18.9496 2.26718C20 3.71294 20 5.80863 20 10C20 14.1914 20 16.2871 18.9496 17.7328C18.6104 18.1997 18.1997 18.6104 17.7328 18.9496C16.2871 20 14.1914 20 10 20C5.80863 20 3.71294 20 2.26718 18.9496C1.80026 18.6104 1.38964 18.1997 1.05041 17.7328C0 16.2871 0 14.1914 0 10ZM10 4.70581C7.07635 4.70581 4.70591 7.07625 4.70591 9.99993C4.70591 12.9236 7.07635 15.294 10 15.294C12.9237 15.294 15.2941 12.9236 15.2941 9.99993C15.2941 7.07625 12.9237 4.70581 10 4.70581ZM10 13.3088C8.17621 13.3088 6.69121 11.8238 6.69121 9.99993C6.69121 8.17478 8.17621 6.6911 10 6.6911C11.8239 6.6911 13.3089 8.17478 13.3089 9.99993C13.3089 11.8238 11.8239 13.3088 10 13.3088ZM16.3966 4.30896C16.3966 4.69856 16.0808 5.0144 15.6912 5.0144C15.3016 5.0144 14.9858 4.69856 14.9858 4.30896C14.9858 3.91935 15.3016 3.60352 15.6912 3.60352C16.0808 3.60352 16.3966 3.91935 16.3966 4.30896Z" fill="#FF630B"/>
</svg>
