<svg width="24" height="20" viewBox="0 0 24 20" fill="none" xmlns="http://www.w3.org/2000/svg">
<path fill-rule="evenodd" clip-rule="evenodd" d="M17.5911 19.8357C18.9794 20.4431 19.5001 19.1705 19.5001 19.1705L23.1734 0.717022C23.1445 -0.526707 21.4669 0.225315 21.4669 0.225315L0.901972 8.29509C0.901972 8.29509 -0.0814412 8.64218 0.00533061 9.24958C0.0921024 9.85698 0.873048 10.1462 0.873048 10.1462L6.05043 11.8817C6.05043 11.8817 7.61232 17.0012 7.93049 17.9846C8.21973 18.9391 8.48004 18.968 8.48004 18.968C8.76928 19.0837 9.0296 18.8812 9.0296 18.8812L12.3848 15.8442L17.5911 19.8357ZM18.4877 3.98575C18.4877 3.98575 19.2108 3.55189 19.1819 3.98575C19.1819 3.98575 19.2976 4.04359 18.9216 4.44853C18.5745 4.79562 10.389 12.1423 9.28993 13.1257C9.20316 13.1836 9.14531 13.2703 9.14531 13.386L8.82715 16.1049C8.7693 16.3941 8.39329 16.423 8.30652 16.1627L6.94709 11.7084C6.88925 11.5349 6.94709 11.3324 7.12064 11.2167L18.4877 3.98575Z" fill="#FF630B"/>
</svg>
