<svg width="24" height="24" viewBox="0 0 24 24" fill="none" xmlns="http://www.w3.org/2000/svg">
<path d="M21.4411 2.34152C20.8482 1.79413 18.4481 0.0414913 13.098 0.0174826C13.098 0.0174826 6.79172 -0.366656 3.71747 2.46637C2.00583 4.18539 1.40341 6.6967 1.34125 9.81783C1.2791 12.9342 1.19782 18.7779 6.80607 20.3624H6.81085L6.80607 22.7777C6.80607 22.7777 6.7726 23.7573 7.41327 23.9541C8.18781 24.1942 8.64679 23.45 9.38787 22.6481C9.79426 22.2063 10.3537 21.5629 10.7792 21.0683C14.6136 21.39 17.5636 20.6505 17.8982 20.5401C18.6728 20.2856 23.0571 19.7238 23.7695 13.8801C24.5057 7.86832 23.4109 4.06054 21.4411 2.34152ZM22.0913 13.4575C21.4889 18.3361 17.9365 18.6434 17.2815 18.8547C17.0042 18.9459 14.4128 19.5942 11.1521 19.3781C11.1521 19.3781 8.72329 22.3216 7.96788 23.085C7.84835 23.2051 7.70969 23.2531 7.61885 23.2291C7.48976 23.1955 7.45152 23.0418 7.4563 22.8161C7.4563 22.4896 7.47542 18.7971 7.47542 18.7971C7.47064 18.7971 7.47064 18.7971 7.47542 18.7971C2.72777 17.4766 3.00508 12.502 3.05767 9.89946C3.11026 7.29692 3.59794 5.16014 5.04662 3.72442C7.64276 1.36197 13.0024 1.7125 13.0024 1.7125C17.5253 1.7317 19.6912 3.1002 20.1932 3.55636C21.8618 4.99688 22.7128 8.43013 22.0913 13.4575Z" fill="#675DA9"/>
<path d="M15.3023 9.99073C15.1446 9.99073 15.0107 9.86588 15.0011 9.70263C14.9485 8.67025 14.4656 8.16607 13.4807 8.11325C13.3134 8.10365 13.1843 7.9596 13.1939 7.79153C13.2034 7.62347 13.3469 7.49383 13.5142 7.50343C14.8147 7.57546 15.5414 8.32453 15.6083 9.66901C15.6179 9.83707 15.4888 9.98113 15.3215 9.98593C15.3119 9.99073 15.3071 9.99073 15.3023 9.99073Z" fill="#675DA9"/>
<path d="M16.8511 10.5098H16.8463C16.6789 10.505 16.5451 10.3658 16.5499 10.1977C16.5738 9.16052 16.2773 8.32022 15.6462 7.62877C15.0199 6.93732 14.1545 6.56278 13.0118 6.48115C12.8445 6.46675 12.7202 6.32269 12.7345 6.15463C12.7489 5.98657 12.8923 5.86173 13.0596 5.87613C14.3505 5.97217 15.3689 6.42353 16.0956 7.22062C16.8272 8.02251 17.181 9.02607 17.1571 10.2121C17.1523 10.3802 17.0136 10.5098 16.8511 10.5098Z" fill="#675DA9"/>
<path d="M18.4386 11.1335C18.2712 11.1335 18.1374 10.999 18.1374 10.831C18.123 8.97271 17.5923 7.5562 16.5118 6.49501C15.4456 5.44823 14.0925 4.91524 12.5004 4.90084C12.3331 4.90084 12.1992 4.76159 12.1992 4.59353C12.1992 4.42546 12.3379 4.29102 12.5004 4.29102C14.2551 4.30542 15.7468 4.89603 16.9277 6.05805C18.1135 7.22008 18.7207 8.82386 18.7398 10.8214C18.7446 10.9942 18.6107 11.1335 18.4386 11.1335C18.4434 11.1335 18.4434 11.1335 18.4386 11.1335Z" fill="#675DA9"/>
<path d="M13.5522 13.7504C13.5522 13.7504 13.9777 13.7888 14.2072 13.5055L14.6518 12.9437C14.867 12.6652 15.3881 12.4875 15.8949 12.7708C16.177 12.9293 16.6886 13.2462 17.0041 13.4815C17.3436 13.7312 18.0321 14.3074 18.0369 14.3122C18.3668 14.5907 18.4433 14.9988 18.2186 15.4358C18.2186 15.4358 18.2186 15.4406 18.2186 15.4454C17.9891 15.8535 17.6783 16.2377 17.291 16.593C17.2862 16.593 17.2862 16.5978 17.2815 16.5978C16.9611 16.8667 16.6456 17.0203 16.3396 17.054C16.3013 17.0636 16.2583 17.0636 16.2009 17.0636C16.067 17.0636 15.9332 17.0444 15.7993 17.0011L15.7897 16.9867C15.3116 16.8523 14.518 16.5162 13.1984 15.7815C12.3378 15.3061 11.6254 14.8212 11.0182 14.3362C10.6979 14.0817 10.3727 13.7984 10.0381 13.4623C10.0285 13.4527 10.0142 13.4383 10.0046 13.4286C9.99504 13.419 9.98069 13.4046 9.97113 13.395C9.96157 13.3854 9.94722 13.371 9.93766 13.3614C9.9281 13.3518 9.91376 13.3374 9.90419 13.3278C9.5743 12.9917 9.28743 12.6652 9.03403 12.3435C8.55114 11.7384 8.06825 11.0182 7.59492 10.1539C6.86341 8.82378 6.52873 8.02669 6.39486 7.55132L6.38051 7.54172C6.33748 7.40727 6.31836 7.27282 6.31836 7.13837C6.31836 7.08075 6.31836 7.03754 6.32792 6.99912C6.36617 6.68701 6.51917 6.37489 6.78213 6.05318C6.78213 6.04838 6.78691 6.04838 6.78691 6.04358C7.14071 5.64983 7.5232 5.34252 7.92959 5.11204C7.92959 5.11204 7.93438 5.11204 7.93916 5.11204C8.36946 4.88636 8.77585 4.96318 9.05794 5.2945C9.05794 5.2945 9.63645 5.99076 9.88507 6.33168C10.1193 6.6534 10.4349 7.16238 10.5927 7.44568C10.8748 7.95467 10.6979 8.47806 10.4206 8.69413L9.86116 9.1407C9.57908 9.37118 9.61733 9.79853 9.61733 9.79853C9.61733 9.79853 10.4445 12.9581 13.5522 13.7504Z" fill="#675DA9"/>
</svg>
