<svg width="40" height="24" viewBox="0 0 40 24" fill="none" xmlns="http://www.w3.org/2000/svg">
<path fill-rule="evenodd" clip-rule="evenodd" d="M39.6631 1.82842C39.1309 1.42322 37.2179 1.42323 35.3481 1.42323C33.9061 1.38273 32.4632 1.45909 31.033 1.65161C30.6159 1.80632 29.6882 4.11225 28.4872 6.47712C27.1064 9.14405 25.4307 11.7299 24.3663 11.6857C22.928 11.6857 23.3019 7.26541 23.4026 4.0533C23.4026 1.93155 23.0862 1.2464 22.7913 1.06222C21.9224 0.605296 21.0023 0.258927 20.0513 0.0308153C20.0513 0.0308153 14.0102 -0.433319 13.1688 2.24098C14.3267 2.40306 16.3044 2.04206 15.5349 10.3007C15.4701 10.7059 14.6071 14.0948 11.8024 9.51241C11.0832 8.36312 8.41506 1.47478 7.48733 1.40848C4.39489 1.34954 1.31683 1.20958 0.252459 1.81369C-0.811916 2.4178 1.59012 7.14753 5.55996 13.4907C8.76746 18.6993 12.1835 22.7439 18.0951 23.7532C19.2242 23.8711 22.1009 23.9963 23.0286 23.5469C23.6399 23.2449 22.8704 18.7656 24.9776 18.3162C25.9053 18.1394 29.5156 23.0018 30.8748 23.5469C32.3392 23.9456 33.8598 24.0827 35.3697 23.9521C37.3833 23.8932 39.6847 24.1584 39.886 22.7439C40.3823 19.6497 33.7947 15.6125 33.6149 13.7117C33.4567 12.3414 36.0241 9.81446 37.3258 7.87689C38.9367 5.53411 40.7131 2.71986 39.7062 1.81369L39.6631 1.82842Z" fill="#FCFCFC"/>
</svg>
