<svg width="24" height="24" viewBox="0 0 24 24" fill="none" xmlns="http://www.w3.org/2000/svg">
<path d="M20.3675 3.50269C18.1621 1.23243 15.1135 0 12 0C5.38376 0 0.0648646 5.38376 0.129729 11.9351C0.129729 14.0108 0.713511 16.0216 1.68648 17.8378L0 23.9999L6.29187 22.3783C8.04321 23.3513 9.98915 23.8053 11.9351 23.8053C18.4864 23.8053 23.8053 18.4215 23.8053 11.8702C23.8053 8.69186 22.5729 5.70809 20.3675 3.50269ZM12 21.7945C10.2486 21.7945 8.49726 21.3405 7.00538 20.4324L6.61619 20.2378L2.85404 21.2107L3.82701 17.5134L3.56755 17.1243C0.71351 12.5189 2.07567 6.4216 6.74592 3.56755C11.4162 0.71351 17.4486 2.07567 20.3026 6.74592C23.1567 11.4162 21.7945 17.4486 17.1243 20.3026C15.6324 21.2756 13.8162 21.7945 12 21.7945ZM17.708 14.5945L16.9945 14.2702C16.9945 14.2702 15.9567 13.8162 15.308 13.4918C15.2432 13.4918 15.1783 13.427 15.1135 13.427C14.9189 13.427 14.7891 13.4918 14.6594 13.5567C14.6594 13.5567 14.5945 13.6216 13.6864 14.6594C13.6216 14.7891 13.4918 14.854 13.3621 14.854H13.2972C13.2324 14.854 13.1026 14.7891 13.0378 14.7243L12.7135 14.5945C12 14.2702 11.3513 13.881 10.8324 13.3621C10.7027 13.2324 10.5081 13.1027 10.3783 12.9729C9.92428 12.5189 9.47023 12 9.14591 11.4162L9.08104 11.2864C9.01618 11.2216 9.01618 11.1567 8.95131 11.027C8.95131 10.8973 8.95131 10.7675 9.01618 10.7027C9.01618 10.7027 9.27564 10.3783 9.47023 10.1837C9.59996 10.054 9.66483 9.85942 9.79455 9.72969C9.92428 9.5351 9.98915 9.27564 9.92428 9.08105C9.85942 8.75672 9.08104 7.00538 8.88645 6.61619C8.75672 6.4216 8.62699 6.35673 8.4324 6.29187H8.2378C8.10808 6.29187 7.91348 6.29187 7.71889 6.29187C7.58916 6.29187 7.45943 6.35673 7.3297 6.35673L7.26483 6.4216C7.13511 6.48646 7.00538 6.61619 6.87565 6.68105C6.74592 6.81078 6.68105 6.94051 6.55132 7.07024C6.09727 7.65402 5.83781 8.36753 5.83781 9.08105C5.83781 9.59996 5.96754 10.1189 6.16214 10.5729L6.227 10.7675C6.81078 12 7.58916 13.1027 8.62699 14.0756L8.88645 14.3351C9.08104 14.5297 9.27564 14.6594 9.40537 14.854C10.7675 16.0216 12.3243 16.8648 14.0756 17.3188C14.2702 17.3837 14.5297 17.3837 14.7243 17.4486C14.9189 17.4486 15.1783 17.4486 15.3729 17.4486C15.6972 17.4486 16.0864 17.3188 16.3459 17.1891C16.5405 17.0594 16.6702 17.0594 16.7999 16.9297L16.9297 16.7999C17.0594 16.6702 17.1891 16.6053 17.3188 16.4756C17.4486 16.3459 17.5783 16.2162 17.6432 16.0864C17.7729 15.827 17.8378 15.5026 17.9026 15.1783C17.9026 15.0486 17.9026 14.854 17.9026 14.7243C17.9026 14.7243 17.8378 14.6594 17.708 14.5945Z" fill="#0DC143"/>
</svg>
