<svg width="21" height="20" viewBox="0 0 21 20" fill="none" xmlns="http://www.w3.org/2000/svg">
<path d="M17.1463 2.91891C15.3085 1.02702 12.7679 0 10.1734 0C4.65987 0 0.227455 4.48647 0.281509 9.94591C0.281509 11.6756 0.767993 13.3513 1.5788 14.8648L0.173401 19.9999L5.41662 18.6486C6.87608 19.4594 8.49769 19.8378 10.1193 19.8378C15.5787 19.8378 20.0112 15.3513 20.0112 9.89185C20.0112 7.24321 18.9841 4.75674 17.1463 2.91891ZM10.1734 18.1621C8.71391 18.1621 7.25445 17.7837 6.01121 17.027L5.68689 16.8648L2.55177 17.6756L3.36258 14.5945L3.14636 14.2702C0.767993 10.4324 1.90312 5.35133 5.795 2.97296C9.68687 0.594592 14.7139 1.72972 17.0923 5.6216C19.4706 9.51348 18.3355 14.5405 14.4436 16.9189C13.2004 17.7297 11.6869 18.1621 10.1734 18.1621ZM14.9301 12.1621L14.3355 11.8918C14.3355 11.8918 13.4706 11.5135 12.9301 11.2432C12.8761 11.2432 12.822 11.1891 12.7679 11.1891C12.6058 11.1891 12.4977 11.2432 12.3896 11.2973C12.3896 11.2973 12.3355 11.3513 11.5788 12.2162C11.5247 12.3243 11.4166 12.3783 11.3085 12.3783H11.2544C11.2004 12.3783 11.0923 12.3243 11.0382 12.2702L10.768 12.1621C10.1734 11.8918 9.63282 11.5675 9.20039 11.1351C9.09228 11.027 8.93012 10.9189 8.82201 10.8108C8.44364 10.4324 8.06526 9.99996 7.79499 9.51348L7.74094 9.40537C7.68688 9.35131 7.68688 9.29726 7.63283 9.18915C7.63283 9.08105 7.63283 8.97294 7.68688 8.91888C7.68688 8.91888 7.9031 8.64861 8.06526 8.48645C8.17337 8.37835 8.22742 8.21618 8.33553 8.10808C8.44364 7.94591 8.49769 7.7297 8.44364 7.56754C8.38958 7.29727 7.74094 5.83781 7.57878 5.51349C7.47067 5.35133 7.36256 5.29728 7.2004 5.24322H7.03824C6.93013 5.24322 6.76797 5.24322 6.60581 5.24322C6.4977 5.24322 6.38959 5.29728 6.28148 5.29728L6.22743 5.35133C6.11932 5.40538 6.01121 5.51349 5.90311 5.56755C5.795 5.67565 5.74095 5.78376 5.63284 5.89187C5.25446 6.37835 5.03825 6.97295 5.03825 7.56754C5.03825 7.99997 5.14635 8.4324 5.30851 8.81078L5.36257 8.97294C5.84905 9.99996 6.4977 10.9189 7.36256 11.7297L7.57878 11.9459C7.74094 12.1081 7.9031 12.2162 8.01121 12.3783C9.14634 13.3513 10.4436 14.054 11.9031 14.4324C12.0652 14.4864 12.2815 14.4864 12.4436 14.5405C12.6058 14.5405 12.822 14.5405 12.9842 14.5405C13.2544 14.5405 13.5788 14.4324 13.795 14.3243C13.9571 14.2162 14.0652 14.2162 14.1733 14.1081L14.2815 13.9999C14.3896 13.8918 14.4977 13.8378 14.6058 13.7297C14.7139 13.6216 14.822 13.5135 14.876 13.4054C14.9842 13.1891 15.0382 12.9189 15.0923 12.6486C15.0923 12.5405 15.0923 12.3783 15.0923 12.2702C15.0923 12.2702 15.0382 12.2162 14.9301 12.1621Z" fill="#FF630B"/>
</svg>
